<?xml version="1.0" encoding="utf-8"?>
<!-- Generator: Adobe Illustrator 28.1.0, SVG Export Plug-In . SVG Version: 6.00 Build 0)  -->
<svg version="1.1" id="Capa_1" xmlns="http://www.w3.org/2000/svg" xmlns:xlink="http://www.w3.org/1999/xlink" x="0px" y="0px"
	 viewBox="0 0 1024.6 291.1" style="enable-background:new 0 0 1024.6 291.1;" xml:space="preserve">
<style type="text/css">
	.st0{stroke:#000000;stroke-miterlimit:10;}
	.st1{fill:#FF5D8F;stroke:#000000;stroke-miterlimit:10;}
</style>
<g>
	<path class="st0" d="M3.5,187c0-6.2,2.8-13,7.6-18.9l3.7,2.9c-4.2,5.1-6.6,10.9-6.6,16.1s3.4,9.9,9.2,9.9
		c15.9,0,50.7-23.9,100.4-69.2c7.1-6.4,14.2-13.2,21.1-20c21.5-43.4,60.1-97.7,74.8-97.7s4.5,2,4.5,5.1c0,12.4-34.9,55.5-76.1,95.9
		c-8.1,16.4-13.4,31.3-13.4,40.7s3.4,13.8,10.4,13.8c31.3,0,133.1-128.4,140.4-139.8l4,2.4c-0.5,0.8-1.6,2.3-3.1,4.3
		c-12.6,17.8-72,104.9-72,132.7c0,4.5,2.3,6.8,6.6,6.8c14.7,0,36.9-18.3,69.7-44.9l2.9,3.6c-33.1,27.1-56.4,45.8-72.6,45.8
		s-11.4-4.3-11.4-11.4c0-18.3,23.8-59.9,44.7-92.8C213,114.1,161.2,170,139.1,170s-15.2-6.5-15.2-18.4s3.6-18.9,9.4-32.1
		c-4.1,3.9-8.2,7.7-12.3,11.5c-50.9,46.3-85.9,70.3-103.6,70.3s-14-5.7-14-14.5L3.5,187z M149.5,97.2c35.1-35.9,64-72.1,64-81.2
		s-0.4-1-0.8-1C203,15,171.1,57.8,149.5,97.2z"/>
	<path class="st0" d="M334.1,127.2c-16.3,12.6-37.1,22.2-47.8,22.2s-4.5-1.6-4.5-4.1s0.7-7.7,7-15.5l-3.7-2.9
		c-5.5,6.7-8.1,12.5-8.1,18.4s3.9,8.6,9.2,8.6c11.8,0,33.6-9.9,50.8-23.2l-3-3.6L334.1,127.2z"/>
	<path class="st0" d="M375.3,123.7c-0.3,0.5-0.7,1-1.2,1.4c-8,9.3-13.7,20-13.6,25.5c0,2.9,1.4,4.3,4.1,4.3c4.3,0,10.5-2,23.7-8.1
		c2.8-1.3,5,2.8,2,4.1c-13.8,6.2-20.6,8.5-25.7,8.5s-8.9-3.4-8.9-8.9c0-4,2.1-9.6,5.8-15.9c-9.3,5.6-21,10.7-28.2,10.7
		s-6.4-2.3-6.4-6.3c0-8.3,10.4-16.1,20.6-16c5.4,0,9.8,1.3,16.4,4.8c2.5-1.8,4.5-3.4,6-5c0.5-0.5,1-1.1,1.4-1.7
		c1.5-2.2,5.4,0.4,3.9,2.5L375.3,123.7z M334.1,141c6.2,0,16.9-4.9,25.4-10.2c-4.8-2.3-8-3.1-12-3.2c-7.9-0.1-15.2,4.7-15.5,11.6
		c0,1.1,0.7,1.9,2.1,1.9V141z"/>
	<path class="st0" d="M548.6,222.3c-6.4-6.5-7.1-18.7-2.7-39.3c4.7-21.9,17.5-47.9,32-73.1c-23,2.1-48.9,5.8-71.5,10.9
		c-9.5,11.5-17.5,22.4-23,31.7l-4.1-2.3c4.8-8.1,11.7-17.6,19.8-27.6c-10.6,2.6-20.3,5.5-28.4,8.6L469,127
		c9.7-3.8,21.6-7.2,34.8-10.2C545.2,67.2,613.9,5.6,634,5.6s5.7,2.1,5.7,5.6c0,8.2-12.9,28.7-28.7,53.8
		c-7.7,12.3-16.3,25.8-24.5,39.7c19-1.4,35.4-1.5,45.2-0.2c9.5,1.3,14.2,5.4,12.2,10.9c-1.2,3-5,3-4.5,0c0.7-3.7-2-5.5-8.4-6.4
		c-10.1-1.4-27.4-1.2-47.3,0.4c-15,25.8-28.3,52.5-33,74.6c-4,18.8-3.5,30.1,1.4,35.2c2.2,2.3-1.3,5.4-3.4,3.2L548.6,222.3z
		 M511,115.1c22.5-4.7,47.5-8.1,69.6-10c8.7-15,17.9-29.5,26.1-42.6c15.8-25,28-44.3,28-51.3s-0.8-1.2-1.6-1.2
		C615.7,10,552,66.9,511,115.1L511,115.1z"/>
	<path class="st0" d="M609.5,157.5c0-27.2,28.5-75.3,66.1-111.9c27.8-27,54.8-42.1,76.2-42.1s18,5.7,18,14.5
		c0,14.9-17.2,33.7-51.3,56.8c-33.1,22.4-74.6,43.7-97.6,55.6c-4.2,10.3-6.6,19.6-6.6,27.1s2.4,10,6.9,10c14.4,0,41.3-15,73.4-40.3
		l3,3.6c-33.1,26-60.5,41.2-76.4,41.2S609.5,166.4,609.5,157.5L609.5,157.5z M623.9,123.7c23.7-12.3,61.4-32,92-52.7
		c32.5-22,49.2-40,49.2-53s-4.9-9.9-13.2-9.9c-20,0-45.9,14.5-72.9,40.8C655.2,71.9,635.1,99.9,623.9,123.7z"/>
	<path class="st0" d="M686.8,157.5c0-27.2,28.5-75.3,66.1-111.9c27.8-27,54.8-42.1,76.2-42.1s18,5.7,18,14.5
		c0,14.9-17.2,33.7-51.3,56.8c-33.1,22.4-74.6,43.7-97.6,55.6c-4.2,10.3-6.6,19.6-6.6,27.1s2.4,10,6.9,10c14.4,0,41.3-15,73.4-40.3
		l3,3.6c-33.1,26-60.5,41.2-76.4,41.2S686.8,166.4,686.8,157.5L686.8,157.5z M701.2,123.7c23.7-12.3,61.4-32,92-52.7
		c32.5-22,49.2-40,49.2-53s-4.9-9.9-13.2-9.9c-20,0-45.9,14.5-72.9,40.8C732.5,71.9,712.4,99.9,701.2,123.7z"/>
	<path class="st0" d="M772.6,154.2c-6,0-9.5-3-9.5-8.4c0-10.7,10.9-23.7,19.9-23.7c3.9,0,6.4,2,6.4,5.6c0,6.4-8.4,10-18.6,8.8
		c-1.8,3.1-3,6.4-3,9.4s1.3,3.8,4.8,3.8c14.2,0,41.9-14.6,52.5-22.5l2.7,3.7C817,138.9,788,154.3,772.6,154.2L772.6,154.2z
		 M773.9,132.1c6,0.2,10.7-1.6,10.7-4.1s-0.7-1.3-1.6-1.3c-2.8,0-6.2,2.2-9,5.4L773.9,132.1z"/>
	<path class="st0" d="M819.4,136.7c0-7.2,8.9-13.8,18.4-13.8s6.3,0.5,8.7,1.7l-2.3,4c-1.8-0.7-3.8-1.1-6.4-1.1
		c-6.9,0-13.6,4.7-13.6,9.3s0.5,1.4,1.8,1.4c8.8,0,31.3-10.9,35.1-16.3l4.5,1.6c-1.5,3.8-4.1,11.1-8,20.6
		c23-9.2,40.8-15.4,46.7-17.3l1.5,4.3c-6.2,2-25.7,8.9-50.7,18.9c-9.8,23.3-25.8,56.5-48.3,84.4c-28.4,35.2-60.1,53.2-94.1,53.2
		s-31.9-10.5-31.9-24.8c0-22.4,30.8-49.2,90.2-79.9c27.2-14,56.3-26.7,80.5-36.5c2.7-6.3,4.8-11.9,6.5-16.3
		c-9.4,6.3-24.4,12.6-32,12.6s-6.5-2.4-6.5-5.9L819.4,136.7z M712.6,283.1c32.4,0,62.8-17.3,90.4-51.5
		c20.8-25.8,36.1-56.3,45.9-79.1c-23.2,9.4-50.3,21.4-75.7,34.5c-57.4,29.6-87.6,55.7-87.6,75.8s11.5,20.3,27.1,20.3L712.6,283.1z"
		/>
	<path class="st0" d="M887.5,161.1c3.5-6.3,15.4-30.7,19.5-43.8l4.6,1.4c-1.5,4.8-3.9,10.8-6.6,16.8c6.9-7.8,14.3-12.6,20.4-12.6
		s7.5,3.5,9.4,6.2c2.1,3,3.9,5.4,8.1,5.4s13.9-3.1,20.7-7.3l2.9,3.6c-7.5,4.6-17.9,8.2-23.6,8.2s-9.7-4.2-11.9-7.3
		c-1.9-2.7-3.1-4.2-5.5-4.2c-8.1,0-21,12.4-30.1,28.6c-1.4,2.9-2.7,5.3-3.6,7l-4.2-2H887.5z"/>
	<path class="st0" d="M1004.6,123.7c-0.3,0.5-0.7,1-1.2,1.4c-8,9.3-13.7,20-13.6,25.5c0,2.9,1.4,4.3,4.1,4.3c4.3,0,10.5-2,23.7-8.1
		c2.8-1.3,5,2.8,2,4.1c-13.8,6.2-20.6,8.5-25.7,8.5s-8.9-3.4-8.9-8.9c0-4,2.1-9.6,5.8-15.9c-9.3,5.6-21,10.7-28.2,10.7
		s-6.4-2.3-6.4-6.3c0-8.3,10.4-16.1,20.6-16c5.4,0,9.8,1.3,16.4,4.8c2.5-1.8,4.5-3.4,6-5c0.5-0.5,1-1.1,1.4-1.7
		c1.5-2.2,5.4,0.4,3.9,2.5L1004.6,123.7z M963.4,141c6.2,0,16.9-4.9,25.4-10.2c-4.8-2.3-8-3.1-12-3.2c-7.8-0.1-15.2,4.7-15.5,11.6
		c0,1.1,0.7,1.9,2.1,1.9V141z"/>
</g>
<polygon class="st1" points="323.2,124.9 311.6,114.9 296.8,118.9 302.7,104.8 294.3,92 309.6,93.2 319.2,81.3 322.8,96.2 
	337,101.6 324,109.6 "/>
</svg>
