<?xml version="1.0" encoding="utf-8"?>
<!-- Generator: Adobe Illustrator 28.1.0, SVG Export Plug-In . SVG Version: 6.00 Build 0)  -->
<svg version="1.1" id="Capa_1" xmlns="http://www.w3.org/2000/svg" xmlns:xlink="http://www.w3.org/1999/xlink" x="0px" y="0px"
	 viewBox="0 0 323.7 391.8" style="enable-background:new 0 0 323.7 391.8;" xml:space="preserve" preserveAspectRatio="none">
<style type="text/css">
	.st0{fill:#875D3B;}
	.st1{fill:#FFD0BC;}
	.st2{fill:#FFE2D6;}
	.st3{fill:#F0B399;}
	.st4{fill:none;stroke:#D17F5B;stroke-width:4.5;stroke-miterlimit:12;}
	.st5{fill:url(#SvgjsPath2980_00000133496972352311954820000008680761780449042610_);}
	.st6{fill:#93DC3B;}
	.st7{fill:#A8EB57;}
	.st8{fill:#7FCD22;}
	.st9{fill:#5FAE00;}
	.st10{fill:#F7C1AA;}
	.st11{fill:url(#SvgjsPath5101_00000180337528648772802040000007264856495427201436_);}
	.st12{fill:#FFFFFF;}
	.st13{fill:#F771A9;stroke:#E85391;stroke-width:2.2;stroke-miterlimit:12;}
	.st14{fill:#C92066;}
	.st15{fill:#FF8EBD;}
	.st16{fill:#FFA8CC;}
	.st17{fill:url(#SvgjsPath4585_00000037658685716236847920000005874444329146276284_);}
	.st18{fill:#4D3623;stroke:#1F1105;stroke-width:1.5;stroke-miterlimit:12;}
	.st19{fill:#5C4633;}
	.st20{opacity:0.9;enable-background:new    ;}
	.st21{opacity:0.6;fill:#FFFFFF;enable-background:new    ;}
	.st22{opacity:0.9;fill:#FFFFFF;enable-background:new    ;}
	.st23{fill:#D17F5B;}
	.st24{fill:url(#SvgjsPath4593_00000076591150322111450580000015532044198670094476_);}
	.st25{fill:url(#SvgjsPath2753_00000008110950043399041500000003071304268237302698_);}
	.st26{fill:url(#SvgjsPath2757_00000099643845108661072660000011940875434705808295_);}
	.st27{fill:#2A232B;}
	.st28{opacity:0.1;fill:#A68469;enable-background:new    ;}
	.st29{fill:#A68469;}
	.st30{fill:#976F50;}
	.st31{fill:#B59A85;}
	.st32{fill:#784B28;}
</style>
<g id="svga-group-wrapper">
	<g id="svga-group-subwrapper">
		<g id="svga-group-hair-back">
			<path id="SvgjsPath4969" class="st0" d="M246.9,72.5L83.2,63.2c0,0-41.3,300.9-41.3,310.3c0,0,166,1.2,236.8,0
				C277.4,360.5,246.9,72.5,246.9,72.5L246.9,72.5z"/>
		</g>
		<g id="svga-group-humanbody-single">
			<path id="SvgjsPath2761" class="st1" d="M311.6,333.8c-9.9-16.7-22.2-19.7-32.3-22.9c-10.4-3.3-31.8-5.2-43.5-7.6
				c-11.3-2.3-38.1-9.5-38.4-22.2c-0.3-13.3,7.1-66,7.1-66h-85.1c0,0,7.4,52.7,7.1,66c-0.3,12.7-27.1,19.9-38.4,22.2
				c-11.7,2.3-33.1,4.3-43.5,7.6c-10.1,3.2-22.4,6.2-32.3,22.9c-6,10.1-9.9,26.5-9.9,44.6h319.2c0-18.1-3.9-34.5-9.9-44.6H311.6z"/>
			<path id="SvgjsPath2762" class="st2" d="M197.4,281.1c4.1,18,29.9,22.5,43.3,25.2c36,7.2,55.6,8.4,69.6,32.1
				c4.8,8.1,9,26.1,9.8,39.7c3,0.5,0.9-28.7-8.5-44.4c-16-27.1-47.9-24.9-75.8-30.5C224.5,300.9,197.7,293.7,197.4,281.1
				L197.4,281.1L197.4,281.1z M126.8,281.1c-0.3,12.7-27.1,19.9-38.4,22.2c-28,5.6-59.8,3.4-75.8,30.5c-9.3,15.7-11.5,44.9-8.5,44.4
				c0.8-13.6,5-31.7,9.8-39.7c14-23.7,33.5-24.9,69.6-32.1C96.9,303.7,122.7,299.2,126.8,281.1L126.8,281.1L126.8,281.1z"/>
			<path id="SvgjsPath2763" class="st3" d="M81.8,316.8c0,0,47.1,0.5,55.1,3.1c3.8,1.2,13.8,9.3,13.8,9.3s-10.8-5.2-14.2-6.2
				C128.5,320.8,81.9,316.8,81.8,316.8L81.8,316.8z M161.7,334c3.4,0,13-6.3,13-6.3s-9.2,3.4-12.1,3.6c-2.5,0.1-10.5-2-10.5-2
				S158.9,334.1,161.7,334L161.7,334z M190.1,322.1c11.1-3,49-5.3,49-5.3s-39.1-0.8-50.2,2.8c-3.7,1.2-12.4,8.5-12.4,8.5
				S186.5,323.1,190.1,322.1L190.1,322.1z"/>
			<path id="SvgjsPath2764" class="st4" d="M311.6,333.8c-16-27.1-47.9-24.9-75.8-30.5c-11.3-2.3-38.1-9.5-38.4-22.2
				c-0.3-13.3,7.1-66,7.1-66h-85.1c0,0,7.4,52.7,7.1,66c-0.3,12.7-27.1,19.9-38.4,22.2c-11.7,2.3-33.1,4.3-43.5,7.6
				c-10.1,3.2-22.4,6.2-32.3,22.9c-6,10.1-9.9,26.5-9.9,44.6h319.2c0-18.1-3.9-34.5-9.9-44.6H311.6z"/>
		</g>
		<g id="svga-group-chinshadow-single">
			
				<linearGradient id="SvgjsPath2980_00000165947110584733064660000003272566552558807742_" gradientUnits="userSpaceOnUse" x1="-1006.3667" y1="319.7334" x2="-1006.3667" y2="300.6333" gradientTransform="matrix(3 0 0 3 3180.8999 -672.6)">
				<stop  offset="0" style="stop-color:#F0B399;stop-opacity:0.8"/>
				<stop  offset="0.7" style="stop-color:#D17F5B"/>
			</linearGradient>
			<path id="SvgjsPath2980" style="fill:url(#SvgjsPath2980_00000165947110584733064660000003272566552558807742_);" d="
				M162.1,287.5c9.2,0,22.2-5.9,34.4-13.9c0.7-11,2.8-28.4,4.5-41.4c-23-3-55.5-2.9-78.4,0.2c1.7,12.9,3.7,30,4.5,41
				C139.5,281.5,152.8,287.6,162.1,287.5L162.1,287.5z"/>
		</g>
		<g id="svga-group-clothes-single">
			<path class="st6" d="M323.3,378.2c0.6-64-40.4-69.6-73.3-74.2c-10.1-1.4-19.6-2.7-27.2-5.5c-1.2-0.4-2.2-0.9-3.2-1.4
				c-0.9-0.4-1.8-0.9-2.9-1.3c-7.8,15.4-32.3,22.8-53.2,23.3c-1.1,0-2.2,0-3.3,0c-19.7,0-41.8-2.7-55.8-22.4
				c-11.2,4.4-23.6,6.1-35.5,7.8c-34.8,4.9-67.7,9.5-67.7,76.2h7.5c2.7,0,7,0,29,0.1l36.4,0.2c41.1,0.2,75.4,0.4,104.8,0.4s0,0,0,0
				c32.6,0,54.8-0.1,71.9-0.3c4.5-0.1,9-0.3,13.6-0.4c7.6-0.1,15.3,0,22.9-0.3c5-0.2,9.9-0.4,14.7,0c6.4,0,13.3,0,21.3,0
				C323.3,379.9,323.3,378.4,323.3,378.2L323.3,378.2z"/>
			<path id="SvgjsPath5112" class="st7" d="M323.1,378.4c-3.3-9-1.6-25.4-11.2-40c-19.2-28.9-54.8-26.2-87.6-35.6
				c-6.9,14.1-20.1,22.3-35.3,27l0,0c14.8-5.3,27.5-13.3,34.6-27.2c-0.8-0.2-1.6-0.5-2.5-0.7l1.6-3c39.8,12.2,71.9,3.4,90.6,34.9
				C319.3,343.9,323.2,360.3,323.1,378.4L323.1,378.4z M91.7,305c2.1-0.5,4.2-1,6.2-1.6l-2.2-2.9c-38.4,9.9-67.3,3.6-84.8,33.3
				c-6,10.1-9.9,26.5-9.9,44.6c3.3-9,1.6-25.4,11.2-40c17.4-26.2,48.4-26.5,78.4-33.3c10.7,13.2,26.4,22.5,43.4,25.2
				c-21.4-5.6-34.7-15.9-42.4-25.5L91.7,305z"/>
			<path id="SvgjsPath5113" class="st8" d="M214.9,299.2c-8.2,12.7-30.5,21.3-55.8,21.3s-45.6-8.6-55.1-22.9l0,0c0-0.1,2,2.9,2,2.9
				c-2.3,1-7.9,2.9-7.9,2.9l-2.4-3.1v0.2c0.6,0.6,1.1,1.2,1.5,1.9c7.2,9.7,19.2,26,59.7,26s7.3-0.1,11.2-0.4
				c26.8-1.9,44.2-10.5,53.1-26.1c0,0-4.1-1.7-6.2-2.8L214.9,299.2z"/>
			<path class="st9" d="M323.4,378.2c0.7-83.3-67.5-67.8-100.7-79.8c-2.3-0.8-4-1.9-6.2-2.7c-8.3,16.6-34.6,22.9-53.1,23.3
				c-24.1,0.4-45.4-3-59.1-22.4C61,313.7,0.9,290.8,0.9,381c15.3,0-7.1-0.1,73.1,0.3c78.7,0.5,124.7,0.4,155.9,0.2
				c4-0.2,8-0.1,12-0.2c7.5,0,15-0.4,22.5-0.6c7.6-0.1,15.3,0,22.9-0.3c5.4-0.2,10.8-0.4,16.2,0.2c6.1,0,12.6,0,20.1,0
				c0-0.2,0-2.2,0-2.5L323.4,378.2z M103.8,297.7c22.7,34.2,99.1,27.2,112.6-0.9c1.8,0.8,3.9,1.5,6,2.3
				c-6.4,13.5-20.2,26.3-54.4,28.8c-52.7,3.5-64.8-17.8-72.1-27.4C96.1,300.5,101.6,298.6,103.8,297.7z M1.1,380.8
				c4.1-37.6,7.8-64.5,53.8-72.5c15.8-2.9,23.9-3.2,40.9-7.8c13,17.8,25.9,30.5,73.6,28.5c35.2-3.9,47-15.8,53.4-29.8
				c43.6,13.7,97.5-0.3,100.2,81.3c-83-1.1-163.3-3.2-321.8,0.4L1.1,380.8z"/>
		</g>
		<g id="svga-group-head">
			<g id="svga-group-faceshape-wrap">
				<g id="svga-group-faceshape-single">
					<path id="SvgjsPath2977" class="st1" d="M259,131.2L259,131.2c0,0-16.4,67-29.9,87.7c-10.6,16.3-47.6,48.1-66.8,48.1
						s-56.2-31.6-66.9-47.9c-13.6-20.7-30.2-87.5-30.2-87.6l0,0c-2.1-8.1-3.3-16.6-3.3-25.3c0-55.1,44.7-99.8,100-99.9
						c55.3,0,100.2,44.5,100.3,99.6C262.2,114.6,261.1,123.1,259,131.2z"/>
					<path id="SvgjsPath2978" class="st10" d="M204.7,15.8c31.4,16.9,52.8,49.9,52.7,88c0,8.7-1.2,17.2-3.3,25.3l0,0
						c0,0-16.7,66.9-30.2,87.6c-9.8,14.9-41.6,47.4-61.8,47.4s-52-32.5-61.8-47.4c-13.6-20.7-30.2-87.5-30.2-87.6l0,0
						c-2.1-8.1-3.3-16.6-3.3-25.3c0-38,21.3-71.1,52.7-88c-34.1,16-57.6,50.4-57.5,90.4c0,8.7,1.2,17.2,3.3,25.3l0,0
						c0,0,16.7,66.9,30.2,87.6c7.3,11.1,27.4,32.5,44.8,41.2c-0.9-0.4-1.7-0.8-2.6-1.2c8.9,4.7,17.5,7.8,24.2,7.8c0,0,0.2,0,0.3,0
						s0.2,0,0.3,0c6.7,0,15.3-3.1,24.2-7.8c-0.9,0.4-1.8,0.8-2.6,1.2c17.4-8.7,37.5-30.1,44.8-41.2c13.6-20.7,30.2-87.5,30.2-87.6
						l0,0c2.1-8.1,3.3-16.6,3.3-25.3c0-40-23.5-74.4-57.5-90.4L204.7,15.8z"/>
					<path id="SvgjsPath2979" class="st4" d="M259,131.2L259,131.2c0,0-16.4,67-29.9,87.7c-10.6,16.3-47.6,48.1-66.8,48.1
						s-56.2-31.6-66.9-47.9c-13.6-20.7-30.2-87.5-30.2-87.6l0,0c-2.1-8.1-3.3-16.6-3.3-25.3c0-55.1,44.7-99.8,100-99.9
						c55.3,0,100.2,44.5,100.3,99.6C262.2,114.6,261.1,123.1,259,131.2z"/>
				</g>
			</g>
			<g id="svga-group-mouth-single">
				
					<linearGradient id="SvgjsPath5101_00000097487372085065538190000007784600537265672085_" gradientUnits="userSpaceOnUse" x1="-1006.2167" y1="303.6333" x2="-1006.2167" y2="301.4333" gradientTransform="matrix(3 0 0 3 3180.8999 -675.6)">
					<stop  offset="0" style="stop-color:#F7C1AA"/>
					<stop  offset="1" style="stop-color:#F0B399"/>
				</linearGradient>
				<path id="SvgjsPath5101" style="fill:url(#SvgjsPath5101_00000097487372085065538190000007784600537265672085_);" d="
					M161.9,235.4c-6.8,0-11.9-7.1-11.9-7.1c11.9,5.5,24.5,0,24.5,0S167.9,235.4,161.9,235.4z"/>
				<path id="SvgjsPath5105" class="st12" d="M182,220.4c0,1-12.8,5.7-20.2,5.9c-6.9,0.2-20.3-4.4-20.3-5.9s10.6-2.6,20.9-2.6
					c10.3,0,19.5,1.1,19.5,2.6H182z"/>
				<path id="SvgjsPath5106" class="st13" d="M154.6,213.7c1.6-0.2,4.5,1.5,7.9,1.5c2.5,0,5.6-1.8,7.6-1.5c4.2,0.6,6.3,3.1,17.3,4.1
					c0,0-5.3,1.8-6.7,1.9c-4.5,0.4-11.9-0.3-18.6-0.3c-7.5,0-14.7,0.7-19.2,0.5c-1.6,0-6.5-1.9-6.5-1.9
					C145.5,217.6,149.9,214.3,154.6,213.7z M136.4,218.5c0,0,7.4,5.8,10.3,7.8c3.3,2.3,8.3,6,15.6,5.9c5.9,0,10.9-3,13.9-4.9
					c3.3-2.1,11.2-9,11.2-9c-3.1,0.7-5.3,1.3-6.7,1.9c-4.5,1.8-12.3,4.5-18.4,4.5s-14.7-2.7-19.4-4.3
					C139.6,219.3,136.4,218.5,136.4,218.5L136.4,218.5z"/>
				<path id="SvgjsPath5107" class="st14" d="M187.7,218.1c-0.8,1.1-3.5,1.2-4.8,1.6c-1.8,0.6-3.6,1.4-5.4,2
					c-4.4,1.6-9.1,2.9-13.8,3.3c-8.8,0.6-17.4-3-25.7-5.6c-0.7-0.2-1.6-0.3-2.2-0.7c-0.5-0.4,0-1.3,0.6-1.2c1.7,0.3,3.4,1.2,5.2,1.6
					c2,0.5,4.3,0.3,6.3,0.2c2.6,0,5.2-0.2,7.9-0.3c4.8-0.2,9.6,0,14.4,0c4.3,0.2,8.8,0.7,13-0.5c1.1-0.3,2.3-0.7,3.4-1.1
					C187,217.2,188.3,217.2,187.7,218.1C187.4,218.4,187.7,218,187.7,218.1L187.7,218.1z M175.9,220.1c-5.6,0-11.2-0.5-16.8-0.4
					c-3.1,0-6.2,0.2-9.2,0.4c-0.9,0-2.7-0.2-3.5,0.3s1.9,1.3,2.2,1.4c5.4,1.7,11.2,2.9,17,2.2c2.8-0.4,5.6-1,8.3-1.9
					c1.1-0.3,2.4-0.6,3.3-1.2c0.9-0.7-0.7-0.9-1.1-0.9c-1.7,0,1.8,0,0,0L175.9,220.1z"/>
				<path id="SvgjsPath5108" class="st15" d="M161.9,230.6c-6.9,0-12.3-4-17.5-7.9c12.7,4.3,23.4,4.2,35.9-0.6
					C175,226.4,169,230.5,161.9,230.6z M151.5,218c9.2-0.4,18.3,0.4,27.4,0c-3-0.7-6-2.3-9.1-2.8c-2.4-0.2-4.9,1.5-7.4,1.5
					c-2.7,0-5.1-1.5-7.7-1.5c-3.3,0.4-6.5,2-9.7,2.9c2.1,0,4.3-0.1,6.4-0.2c3.1-0.1-2.3,0.1,0,0L151.5,218z"/>
				<path id="SvgjsPath5109" class="st16" d="M154.1,227.1c2.6,0.5,5.4,0.9,8.2,0.9s5-0.4,7.6-0.9c-2.3,1-4.9,1.9-7.7,1.9
					C159.3,229,156.3,228.2,154.1,227.1L154.1,227.1z"/>
			</g>
			<g id="svga-group-eyes-left">
				<g id="svga-group-eyesback-left">
					
						<radialGradient id="SvgjsPath4585_00000028318385111110385820000008324724113210470276_" cx="-1898.7372" cy="296.3933" r="7.2" gradientTransform="matrix(-3.2874 0.2876 0.2876 3.2874 -6212.8633 -283.2169)" gradientUnits="userSpaceOnUse">
						<stop  offset="0" style="stop-color:#FFFFFF"/>
						<stop  offset="0.5" style="stop-color:#FDFEFE"/>
						<stop  offset="0.7" style="stop-color:#F6F8F9"/>
						<stop  offset="0.9" style="stop-color:#EAEFF2"/>
						<stop  offset="1" style="stop-color:#D9E3E8"/>
						<stop  offset="1" style="stop-color:#D8E2E7"/>
					</radialGradient>
					<path id="SvgjsPath4585" style="fill:url(#SvgjsPath4585_00000028318385111110385820000008324724113210470276_);" d="
						M124.1,138c7.6,1,13.2,6.3,18.2,14.8l0,0c0,0,0,0.1,0,0.2c0.5,2-1.2,3.6-3.4,4.9c-7.8,1.5-15.3,3.6-23.3,2.7
						c-16-1.8-16.5-10.1-17.4-12.3c-0.5-2.1-0.6-4.3-0.7-6.4c3,0,6.6-1.7,9.5-2.6c3.5-1,11.2-2.1,16.9-1.3L124.1,138z"/>
				</g>
				<g id="svga-group-eyesiriswrapper-left">
					<g id="svga-group-eyesiriscontrol-left">
						<g id="svga-group-eyesiris-left">
							<path id="SvgjsPath5115" class="st18" d="M134.4,150.1c-2,7.4-9.7,11.8-17.2,9.8s-11.9-9.7-9.8-17.2c2-7.4,9.7-11.8,17.2-9.8
								C132,134.9,136.4,142.6,134.4,150.1z"/>
							<path id="SvgjsPath5116" class="st19" d="M132.3,150.3c-2,5.7-7.9,9-13.8,7.5c-5.4-1.5-8.7-6.6-8.3-12.1c2-0.2,4.2-0.2,6.4,0
								c0,0,0,0.1,0,0.2c-0.7,2.6,0.9,5.4,3.7,6.1c2.8,0.8,5.6-0.8,6.3-3.4c0-0.3,0.1-0.7,0.2-1
								C128.7,148.3,130.6,149.2,132.3,150.3L132.3,150.3z"/>
							<path id="SvgjsPath5117" class="st20" d="M122.8,142.3c-2.8-0.8-5.7,0.8-6.4,3.6c-0.7,2.8,1,5.7,3.8,6.5s5.7-0.8,6.4-3.6
								C127.3,146,125.6,143.1,122.8,142.3z M123.4,152.1c-1.2,0.4-2.4-0.1-2.7-1.1c-0.3-1,0.4-2,1.6-2.4s2.4,0.1,2.7,1.1
								C125.3,150.7,124.6,151.7,123.4,152.1z"/>
							<path id="SvgjsPath5118" class="st21" d="M113.5,153.8c-0.9,0.5-2.2,0-2.9-1c-0.7-1.1-0.6-2.4,0.2-2.9c0.9-0.5,2.2,0,2.9,1
								C114.4,152,114.3,153.3,113.5,153.8z"/>
							<path id="SvgjsPath5119" class="st22" d="M131.9,145.8c-2,1.2-4.9,0.1-6.6-2.4s-1.4-5.5,0.5-6.7c2-1.2,4.9-0.1,6.6,2.4
								S133.8,144.6,131.9,145.8z"/>
						</g>
					</g>
				</g>
				<g id="svga-group-eyesfront-left">
					<path id="SvgjsPath4610" class="st1" d="M88.8,149.7c0,22.7,13.6,41.1,30.4,41.1s30.4-18.4,30.4-41.1s-13.6-41.1-30.4-41.1
						S88.8,127,88.8,149.7L88.8,149.7z M98.3,148.3c-0.5-2.1-0.6-4.3-0.7-6.4c3,0,6.6-1.7,9.5-2.6c3.5-1,11.2-2.1,16.9-1.4
						c7.6,1,13.2,6.3,18.2,14.8l0,0c0,0,0,0.1,0,0.2c0.5,2-1.2,3.6-3.4,4.9c-7.8,1.5-15.3,3.6-23.3,2.7c-16-1.8-16.5-10.1-17.4-12.3
						L98.3,148.3z"/>
					<path id="SvgjsPath4620" class="st23" d="M123.3,129.9c5.4,0.8,10.8,3.6,15.8,7.1c1.1,0.7,2.3,1.6,4.2,2.7
						c-1.4-0.3-2.7-1.1-3.9-1.8c1.3,1.3,2.4,2.9,3.4,4.4c-4.3-6-12.3-10.3-19-11.7c-6.5-1.3-18.1,0.2-26.6,5.1
						C105,130.1,116.5,128.9,123.3,129.9z"/>
					<path id="SvgjsPath4621" d="M142.4,152.8h-0.1c-4.9-8.3-10.6-13.4-18.2-14.4c-5.7-0.8-13.5,0.4-16.9,1.3
						c-3.1,0.8-6.8,2.7-9.9,2.5c-2.9-0.2-6.2-2.5-7.9-4.1c1.9,1.4,6.9,1.7,8.4,1.3c-0.5-0.1-3-1.7-3.5-2.2c1.2,0.7,6,1.4,7.5,1
						c-0.4-0.2-2.6-1.7-3.1-2.3c0.2,0.2,5.6,1.2,8.3,0.3c16.4-5.4,29.7-0.7,36,16.4c0,0,0,0.1,0,0.2c0,0,0,0-0.1,0h-0.3H142.4z
						 M97.9,147.8c-1.1,4.1,1.8,13,17.1,14c10.9,0.7,25.8-4.5,24-4.2c-7.8,1.5-15.3,3.5-23.3,2.6C97.6,158.2,99.3,148,97.9,147.8
						L97.9,147.8z"/>
				</g>
			</g>
			<g id="svga-group-eyes-right">
				<g id="svga-group-eyesback-right">
					
						<radialGradient id="SvgjsPath4593_00000150804496356305337600000007152767580747108519_" cx="-1022.345" cy="219.5944" r="7.2" gradientTransform="matrix(3.2874 0.2876 -0.2876 3.2874 3631.9631 -283.2169)" gradientUnits="userSpaceOnUse">
						<stop  offset="0" style="stop-color:#FFFFFF"/>
						<stop  offset="0.5" style="stop-color:#FDFEFE"/>
						<stop  offset="0.7" style="stop-color:#F6F8F9"/>
						<stop  offset="0.9" style="stop-color:#EAEFF2"/>
						<stop  offset="1" style="stop-color:#D9E3E8"/>
						<stop  offset="1" style="stop-color:#D8E2E7"/>
					</radialGradient>
					<path id="SvgjsPath4593" style="fill:url(#SvgjsPath4593_00000150804496356305337600000007152767580747108519_);" d="M200,138
						c-7.6,1-13.2,6.3-18.2,14.8l0,0c0,0,0,0.1,0,0.2c-0.5,2,1.2,3.6,3.4,4.9c7.8,1.5,15.3,3.6,23.3,2.7c16-1.8,16.5-10.1,17.4-12.3
						c0.5-2.1,0.6-4.3,0.7-6.4c-3,0-6.6-1.7-9.5-2.6c-3.5-1-11.2-2.1-16.9-1.3L200,138z"/>
				</g>
				<g id="svga-group-eyesiriswrapper-right">
					<g id="svga-group-eyesiriscontrol-right">
						<g id="svga-group-eyesiris-right">
							<path id="SvgjsPath5120" class="st18" d="M216.7,150.1c-2,7.4-9.7,11.8-17.2,9.8s-11.9-9.7-9.8-17.2c2-7.4,9.7-11.8,17.2-9.8
								C214.3,134.9,218.7,142.6,216.7,150.1z"/>
							<path id="SvgjsPath5121" class="st19" d="M214.5,150.3c-2,5.7-7.9,9-13.8,7.5c-5.4-1.5-8.7-6.6-8.3-12.1c2-0.2,4.2-0.2,6.4,0
								c0,0,0,0.1,0,0.2c-0.7,2.6,0.9,5.4,3.7,6.1c2.8,0.8,5.6-0.8,6.3-3.4c0-0.3,0.1-0.7,0.2-1
								C210.9,148.3,212.8,149.2,214.5,150.3L214.5,150.3z"/>
							<path id="SvgjsPath5122" class="st20" d="M205.1,142.3c-2.8-0.8-5.7,0.8-6.4,3.6s1,5.7,3.8,6.5s5.7-0.8,6.4-3.6
								S207.9,143.1,205.1,142.3z M205.7,152.1c-1.2,0.4-2.4-0.1-2.7-1.1s0.4-2,1.6-2.4c1.2-0.4,2.4,0.1,2.7,1.1
								S206.9,151.7,205.7,152.1z"/>
							<path id="SvgjsPath5123" class="st21" d="M195.8,153.8c-0.9,0.5-2.2,0-2.9-1c-0.7-1.1-0.6-2.4,0.2-2.9c0.9-0.5,2.2,0,2.9,1
								C196.7,152,196.6,153.3,195.8,153.8z"/>
							<path id="SvgjsPath5124" class="st22" d="M214.2,145.8c-2,1.2-4.9,0.1-6.6-2.4c-1.7-2.5-1.4-5.5,0.5-6.7
								c2-1.2,4.9-0.1,6.6,2.4C216.4,141.6,216.1,144.6,214.2,145.8z"/>
						</g>
					</g>
				</g>
				<g id="svga-group-eyesfront-right">
					<path id="SvgjsPath4631" class="st1" d="M204.9,108.6c-16.8,0-30.4,18.4-30.4,41.1s13.6,41.1,30.4,41.1s30.4-18.4,30.4-41.1
						S221.7,108.6,204.9,108.6L204.9,108.6z M208.5,160.6c-8,0.9-15.5-1.2-23.3-2.7c-2.2-1.3-3.9-3-3.4-4.9c0,0,0-0.1,0-0.2l0,0
						c4.9-8.5,10.6-13.8,18.2-14.8c5.7-0.8,13.5,0.4,16.9,1.4c3,0.8,6.5,2.6,9.5,2.6c0,2.1-0.2,4.3-0.7,6.4
						c-0.8,2.2-1.4,10.5-17.4,12.3L208.5,160.6z"/>
					<path id="SvgjsPath4641" class="st23" d="M200.9,129.9c-5.4,0.8-10.8,3.6-15.8,7.1c-1.1,0.7-2.3,1.6-4.2,2.7
						c1.4-0.3,2.7-1.1,3.9-1.8c-1.3,1.3-2.4,2.9-3.4,4.4c4.3-6,12.3-10.3,19-11.7c6.5-1.3,18.1,0.2,26.6,5.1
						C219.2,130.1,207.7,128.9,200.9,129.9z"/>
					<path id="SvgjsPath4642" d="M181.5,152.8h-0.1c0,0,0-0.1,0-0.2c6.3-17.1,19.6-21.8,36-16.4c2.7,0.9,8.1-0.1,8.3-0.3
						c-0.5,0.6-2.7,2.1-3.1,2.3c1.5,0.4,6.3-0.3,7.5-1c-0.5,0.5-3.1,2.1-3.5,2.2c1.5,0.4,6.5,0,8.4-1.3c-1.7,1.6-5,3.9-7.9,4.1
						c-3.1,0.2-6.8-1.7-9.9-2.5c-3.5-0.9-11.2-2.1-16.9-1.3c-7.6,1-13.2,6.1-18.2,14.4c0,0,0,0-0.1,0h-0.3H181.5z M208.5,160.3
						c-8,0.9-15.5-1.1-23.3-2.6c-1.9-0.3,13.1,4.9,24,4.2c15.3-1,18.2-9.9,17.1-14c-1.4,0.3,0.4,10.5-17.7,12.5L208.5,160.3z"/>
				</g>
			</g>
			<g id="svga-group-facehighlight-single">
				
					<radialGradient id="SvgjsPath2753_00000044136806407762534720000006441372924702600855_" cx="-1006.3833" cy="288.1" r="21.9833" gradientTransform="matrix(3 0 0 3 3180.8999 -672.6)" gradientUnits="userSpaceOnUse">
					<stop  offset="0" style="stop-color:#FFE2D6;stop-opacity:0.5"/>
					<stop  offset="0.9" style="stop-color:#FFD0BC;stop-opacity:0"/>
				</radialGradient>
				<path id="SvgjsPath2753" style="fill:url(#SvgjsPath2753_00000044136806407762534720000006441372924702600855_);" d="
					M227.8,191.6c0,36.7-29.6,66.4-66.3,66.5c-36.7,0-66.4-29.6-66.5-66.3c0-36.7,29.6-66.4,66.3-66.5
					C197.9,125.3,227.7,154.9,227.8,191.6z"/>
				
					<radialGradient id="SvgjsPath2757_00000060012961528929440530000016325330248877302185_" cx="-1006.2667" cy="257.1333" r="19.7176" gradientTransform="matrix(3 0 0 3 3180.8999 -672.6)" gradientUnits="userSpaceOnUse">
					<stop  offset="0" style="stop-color:#FFE2D6;stop-opacity:0.5"/>
					<stop  offset="0.9" style="stop-color:#FFD0BC;stop-opacity:0"/>
				</radialGradient>
				<path id="SvgjsPath2757" style="fill:url(#SvgjsPath2757_00000060012961528929440530000016325330248877302185_);" d="
					M219.7,97.1c0,31.8-25.8,57.6-57.6,57.6s-57.6-25.8-57.6-57.6s25.8-57.6,57.6-57.6S219.7,65.3,219.7,97.1L219.7,97.1z"/>
			</g>
			<g id="svga-group-eyebrows-left">
				<path id="SvgjsPath5079" class="st27" d="M120.6,118.6c-7.3-0.8-35,6.1-35,6.1s27.6-11.1,39.1-9.3c8.5,1.3,23.7,8.4,20.9,12.1
					C143.4,130.5,136.4,120.3,120.6,118.6z"/>
			</g>
			<g id="svga-group-eyebrows-right">
				<path id="SvgjsPath5080" class="st27" d="M178.1,127c-2.8-3.8,12.5-10.4,22.3-11.2c11.7-1,37.7,6.7,37.7,6.7s-26.2-4.3-33.5-3.5
					C188.4,120.9,180.4,130,178.1,127L178.1,127z"/>
			</g>
			<g id="svga-group-nose-single">
				<path id="SvgjsPath5091" class="st3" d="M162,202.3c-3.1,0-8.7-3.3-8.1-6.2c0.6-2.7,4.1,1,8.2,1c4,0,8.9-2.4,9.4,0.3
					C172.4,201.8,167,202.4,162,202.3L162,202.3z"/>
				<path id="SvgjsPath5092" class="st23" d="M169,200.7c0.3,0.3,0.7,0.3,1,0s0.3-0.9,0-1.2c-1.9-2.4-5.3,0.8-5,1.2
					C165,200.8,167.6,198.9,169,200.7z M154.9,194.5c0.4,2.6,1.2,6.1,7.9,7.9c-6.5-0.2-10.8-1.4-10.7-7.5c0-3.1,3.2-9.4,3.2-9.4
					S154.5,191.8,154.9,194.5L154.9,194.5z"/>
			</g>
			<g id="svga-group-hair-front">
				<path class="st28" d="M126.4,388.8c0,0.2,0.2,0.3,0.2,0.5c1.1-0.1,2.2-0.2,3.4-0.4C128.8,388.9,127.6,388.9,126.4,388.8z"/>
				<path class="st28" d="M251.3,64.6L77.7,62.7L62.1,382.5c13.3,0.1,26.6,0.4,39.9,0.8c0.5,0,1,0,1.4,0.2c4.5-85,5.3-104-9.3-168.1
					c-6-26.4-11.7-51.3-10-84.4c1.6,0.4,7.2,0.1,10.5-2.3c5.6-1.6,11.4,5.4,20.4,2c1.6,0.1,34.4,1.6,39.2,0.4
					c1.7-2.6,0-6.6,2.3-25.1c0.7,4.6,1.2,7.8,4.5,28.1c0.7,0,18.5,3.1,42.4-0.7c0,0,31.9-0.8,36.1-3.1c0.2,21.3-3.3,45.4-7.3,73.1
					c-6.9,47.2-15.3,105.3-9.8,179.1c1.7-0.9,3.7-0.8,5.6-0.7c4.6-0.4,9.2-0.3,13.9-0.3c3.7,0,7.4-0.1,11.1-0.2L251.3,64.6
					L251.3,64.6z"/>
				<path class="st28" d="M166.7,390.2c0.3,0.1,0.6,0.2,0.8,0.4c1.1,0,2.2-0.2,3.3-0.2C169.4,390.4,168.1,390.4,166.7,390.2
					L166.7,390.2z"/>
				<path class="st28" d="M204.5,391.5c0,0.1,0.2,0.2,0.2,0.4c2.1-0.1,4.1-0.1,6.2-0.1C208.9,391.8,206.8,391.7,204.5,391.5
					L204.5,391.5z"/>
				<path class="st29" d="M289.4,349.7c-24.9-99.3,5.8-177.8-15.1-248.5C264.3,67.6,244,23.9,204,6.8c-10.7-4.6-20.7-5.3-32-3.7
					c-6.4-1.9-13.3-2.9-20.5-2.9c-49.8,0-81.9,42.5-97.5,90.1c-9.8,29.8-12.1,55.8-9.5,106.8c5.7,110.5-4,142.1-20.6,185.2
					c3.1,0,6.2,0,9.2,0c2,0,4,0,6,0c20.3,0,40.7,0.2,61,0.9c4.5-85,5.2-103.4-9.2-167.1c-6.3-27.6-12.1-53.5-9.8-88.7
					c3-0.1,5.3,0.6,8,2l0,0c0.1,0,0.3,0.1,0.4,0.2c0-0.4,0.2-0.9,0.3-1.4H90c0-0.1-0.2-0.2-0.2-0.2c1-5.2,2.9-11.1,5.2-16.9h0.3
					c-0.8,4.8-1.3,9.6-1.4,14.2l0,0c5.4-1.4,11.8,3.1,16.7,3.1c1.4,0,2.6-0.6,3.9-1.1c1.8-26.2,3.8-36.8,7.6-45h0.3
					c-2.2,10.3-2.9,24.7-2.1,44.1l0,0c4.4-0.4,9.6,1.5,13.4,1.4c0-6.4,1.1-15.1,1.5-20.4h0.3c0.7,10.3,1.9,17.1,2.9,21.8
					c8.7-1.9,8.3-0.7,12.8-0.9c0.3,0,0.6,0,0.9-0.1l0,0h-0.2c-1.1-13.3,3.8-41.4,5.1-48h0.3c0,13.1,1.2,18.7,6.2,50.3
					c2.8-0.3,7.7,1.4,11.1,1.8c0-6.6,0-6.1,0-9.6h0.3c0,3.3,0.2,6.6,1.2,9.8c5.2,0.1,8.9-2.3,13.7-1.8c0.6-27-1.7-41.3-3.1-54h0.3
					c6.7,25,9,52,9.2,54.4c0.6,0,2.9-0.2,4-0.4c0.7-5.2,3.5-35.2,2.2-43.2h0.3c4.3,14.1,3.8,25,4.2,42c4.2-1.3,11,0.6,15.8,0
					c-0.7-12.7-0.9-24.1-4-35h0.3c3.8,9.7,6.8,21.6,8.2,34.4l0,0c10.6,0.8,8.8-1.6,15.2-3.6c2.2,58.4-25.9,136.6-17.1,256.5
					c0.7,0,1.5,0,2.2,0c4.6-0.4,9.3-0.3,14-0.3c7.5,0,15-0.4,22.5-0.6c7.6-0.1,15.3,0,22.9-0.3c4-0.2,7.9-0.3,11.9-0.1
					c-4.8-11.9-6.6-18.4-9.6-30.7L289.4,349.7z"/>
				<path class="st30" d="M139,87.4c-6.2,12.4-5.1,26.4-7.7,40.3c0.8,0,1.6,0.1,2.4,0.1c0-6.4,1.1-15.1,1.5-20.4h0.3
					c0.7,10.3,1.9,17.1,2.9,21.8c1.1-0.2,2-0.4,2.8-0.6c-2.9-13.2-5.2-26.6-2.2-41.3V87.4z"/>
				<path class="st30" d="M264.1,278.8c0,24.8,0.6,50.6,4.9,75.2c-32.9-55.9-13.2-125.1-4.9-184.3c-4.6,16.4-23.6,100.4-26,130.6
					c-14.2-57,67.8-200.8-38.2-275.1c25.1,20.1,41.1,50.4,48.5,98.6c-1.1,1.2-5.5-0.6-5.8,1.8c1.3,36.5-9.1,80.7-15,137.9
					c-3.5,34.3-5.4,73.3-2.1,118.2c0.7,0,1.5,0,2.2,0c4.6-0.4,9.3-0.3,14-0.3c7.5,0,15-0.4,22.5-0.6c7.6-0.1,15.3,0,22.9-0.3
					c0.4,0,0.9,0,1.3,0c-11.7-33.2-23.3-66.2-24.4-101.7H264.1z"/>
				<path class="st30" d="M163.7,56.1c-7.1,13-8.2,27.8-9.6,42.4c1.2-8.2,2.4-15.4,3-18.3h0.3c0,13.1,1.2,18.7,6.2,50.3
					c1-0.1,2.2,0,3.4,0.2c-5.8-24.3-9.5-48.7-3.5-74.6H163.7z"/>
				<path class="st30" d="M93.8,125.5c1.4-0.4,2.8-0.4,4.2-0.2c0.8-20.6,4.7-41.7,16.3-57.7C100.1,79.2,97.1,96.8,94,113.4
					c0.3-0.8,0.6-1.5,0.9-2.3h0.3c-0.8,4.8-1.3,9.6-1.4,14.2l0,0V125.5z"/>
				<path class="st30" d="M114.5,127.4c1.8-26.2,3.8-36.8,7.6-45h0.3c-2.2,10.3-2.9,24.7-2.1,44.1l0,0c1.2,0,2.5,0,3.8,0.1
					c-0.8-19.1-3.9-38,3.4-55.7c-13.9,15.4-13.3,38-14.5,57C113.5,127.7,114,127.5,114.5,127.4z"/>
				<path class="st30" d="M73.2,156.5c8.2,60.9,18.1,120.1,9.9,181c4.9-51-3.3-102-13.2-153c8.2,55.9,8.2,111.9-6.6,166.2
					c5.2-27.4,0-53.9-2.3-80.9c0.2,38.5-8.5,76.7-21.5,112.5c20.2,0,40.4,0.2,60.5,0.9c4.5-85,5.2-103.4-9.2-167.1
					c-6.3-27.6-12.1-53.5-9.8-88.7c0,0,3.6-48.1,49.8-94.4C89.4,60.1,66.6,110.3,73.2,156.5L73.2,156.5z"/>
				<path class="st30" d="M202.9,97.9c0.1-4.5,0-8.4-0.3-10.6h0.3c4.3,14.1,3.8,25,4.2,42c0.9-0.3,2-0.4,3.1-0.4
					c0.1-20.9-3.3-41.7-10.3-61.2c1.1,9.7,2.8,20.1,3,30.3V97.9z"/>
				<path class="st30" d="M173.8,132.1c0.3,0,0.7,0.1,1,0.2c0-6.6,0-6.1,0-9.6h0.3c0,3.3,0.2,6.6,1.2,9.8c0.5,0,1,0,1.5,0
					c-1-10.7-1-20.7-1-31.8c-3.2,11-1.8,20.6-3.1,31.5L173.8,132.1z"/>
				<path class="st30" d="M219.2,94.3c3.8,9.8,6.8,21.7,8.2,34.5l0,0c1.3,0,2.4,0.1,3.3,0.1c-1.8-21.7-10.8-42.1-21-61.2
					c6.3,20.6,11.1,41.2,11.5,61.8c0.6,0,1.1,0,1.7,0c-0.7-12.7-0.9-24.1-4-35h0.3V94.3z"/>
				<path class="st30" d="M189.5,130.5c0.2,0,0.4,0,0.6,0c0.6-27-1.7-41.3-3.1-54h0.3c6.7,25,9,52,9.2,54.4c0.5,0,1.8-0.1,2.9-0.3
					c-1.9-26.5-5.9-52.6-19.1-76.2c6.2,24.8,6.6,51.1,9.3,76L189.5,130.5z"/>
				<path id="SvgjsPath4974" class="st31" d="M103.9,74.2c16.3-29.4,25.8-37.3,49.3-50.5c0.3-0.2-1.2,0.7-3.5,2.2
					C126.8,40,116.1,54.1,103.9,74.2z M220.9,66c15.1,29.9,16.1,50.4,14.8,40.7c-1.3-8.2-2.3-17.9-10.4-36.5
					c-8.8-19.4-23.2-38.7-41.6-50.1C194,27.1,206.4,38.1,220.9,66L220.9,66z M148.1,76.9c-3.1,21.6-2.5,38.5-2.4,37.1
					c0-16.4,3.8-39,7.9-55.1c4.4-15.8,9.2-24.4,10.7-27.6C157.9,43.3,151,58.8,148.1,76.9L148.1,76.9z M180.9,102.5
					c0.1,2.5,0.2,4,0.2,3.7c-0.9-9.9,2.9-27.4-9-63.7C177,59.9,180,74.7,180.9,102.5L180.9,102.5z M211.9,110.1
					c0.5,3.5,0.9,5.6,0.8,5.2c-2-11.8-1.5-33.1-12.8-57.5c-7-15.1-14.6-22.4-17.6-25.8C193.4,45.6,204,59.5,211.9,110.1L211.9,110.1
					z M128,105c0.9-13.8,1.8-15.8,2.8-20c5.9-23.2,9.7-30.7,16.7-42.5C125.9,75.6,128,105,128,105z M59.2,109.2c0,0.8,0,4.6,0,4
					c1-33,40-90,66.4-99.7c-25.5,8.2-63.3,55.5-66.3,95.7H59.2z M60.4,175c1.1,9.2,2.7,16.4,2.5,15.6c-6.3-29.5,1.8-96.4,20.6-120.2
					C69.8,86.8,55.7,129.7,60.3,175H60.4z M53.9,265.4c-1.1,6.6-1,5.7-0.3,2.3c6.3-30.2,0.3-83.4-2.2-109.2
					C51.4,156.8,56.2,239.2,53.9,265.4z M236.4,42.8c3.7,5.3,12.1,15.6,21.2,38.4c6.9,17.4-2.9-9-6.3-16.6
					C238.5,34.9,221,20.8,191.8,9.8C217.2,20.7,224.7,28.5,236.4,42.8z M261.4,170.7c-1.9,18.7,2-12.6,2.4-16.6
					c3.7-32.9-2.3-55.1-14.4-76.1C259.7,97.8,266.3,117.2,261.4,170.7L261.4,170.7z M271.7,288.7c1.2,5.7,1.9,9.1,1.8,8.4
					c-7.8-40.2-0.8-143.5-0.8-147.2C272.2,160.1,261,240,271.7,288.7L271.7,288.7z"/>
				<path class="st32" d="M257.5,381c0.6,0,1.1,0,1.7,0c-1.5-6-2.7-11.1-3.2-13.6c-7.9-36.3-11-94.9-3.9-131.1
					c-7.4,32.3-9.1,88.4,2.2,133.2c0.8,3.1,1.9,7.1,3.2,11.6V381z"/>
				<path class="st32" d="M289.6,349.7c-24.9-99.6,5.9-177.6-15.1-248.5c-11.6-39.1-33.2-78.6-70.4-94.5c-11.3-4.8-21.7-5.2-32-3.7
					c-12-3.6-27.1-4.2-42.5,0.1c-40,11.2-63.5,50-75.7,87.2c-9.2,28.2-12.2,53.1-9.5,106.8c5.6,108.6-3.5,140.7-20.6,185.2
					c3.1,0,6.3,0,9.4,0c2,0,4,0,6,0c20.4,0,40.8,0.2,61.2,0.9c1-16.8,2.4-39.1,2.8-72.6c0.7-80.5-26.4-113.7-21.9-183
					c0.4,0,0.8,0,1.1,0c0.4,0,0.8,0,1.2,0.1c2,0.3,3.8,1,5.4,1.8c0,0,0,0,0,0.1l0,0c0.2,0.1,0.4,0.2,0.6,0.4v-0.2
					c0-0.4,0.2-0.9,0.3-1.4c0,0,0-0.1,0-0.2c1.1-5.4,2.9-11.3,5.2-16.9c-0.9,5.2-1.3,10-1.4,14.2c0,0,0,0.2,0,0.3
					c0.4-0.1,0.8-0.2,1.2-0.3c5.2-0.7,11.1,3.3,15.8,3.3c1.1,0,2.2-0.5,3.2-0.8c0.3-0.1,0.5-0.2,0.8-0.3c0.5-7.4,1.3-15.2,1.7-19.1
					c0.9-8.9,2.2-18,5.9-26c-1.8,8.4-3,21.5-2.1,44c0,0,0,0.1,0,0.2c0.3,0,0.7,0,1,0c1.3,0,2.7,0,4.1,0.3c0.2,0,0.3,0,0.5,0
					c2.5,0.4,5.1,1,7.5,1c0.2,0,0.4,0,0.6,0v-0.2c0-3.4,0.3-7.8,1-14.4c0.2-2,0.4-4,0.6-6c0.6,10,1.8,16.6,2.9,21.9c0,0,0,0,0,0.1
					c0.2,0,0.4,0,0.6-0.1c3.2-0.8,3.3-1,7.5-1c1.9,0,3.4,0.2,4.8,0.1c0.3,0,0.7,0,1-0.1v-0.2c-0.3-3.3-0.4-6.4-0.3-8.5
					c0.2-5.1,2.6-24.7,5.4-39.5c0,16.3,2.6,25.8,4.8,41c0.4,3.1,0.9,6.1,1.4,9.1c0,0,0,0.2,0,0.3c0.2,0,0.4,0,0.7,0
					c3,0,6.6,1.2,10.1,1.7c0.2,0,0.4,0,0.6,0v-4.4c0-2.1,0-3.9,0-5.4c0,4.1,0.3,6.4,1,9.2c0,0.2,0.1,0.5,0.2,0.7c0.3,0,0.5,0,0.8,0
					c0.2,0,0.5,0,0.7,0c2.9-0.2,5.8-1.2,8.7-1.7c1-0.2,2-0.2,2.9-0.2c0.3,0,0.7,0,1,0c0-0.1,0-0.3,0-0.4c0-2.6,0-5.6,0-9.2
					c-0.2-23.6-1-24.9-3.1-44.6c7.1,26.4,9.2,54.6,9.2,54.6s3-0.2,4.3-0.4c0.7-5.1,3.5-35.3,2.2-43.4c4.3,14.1,3.8,25,4.1,42.1
					c0,0,0,0,0,0.1c0.3,0,0.6-0.2,0.9-0.2c4.4-0.9,9.8,0.6,14.8,0.2c0.1,0,0.3,0,0.4,0c0,0,0,0,0-0.2c-0.7-13.7-1.1-24.6-4-35
					c3.6,9.3,6.7,21.4,8.1,34c0,0,0,0,0,0.1v0.2c0,0,0,0,0,0.2c0.1,0,0.3,0,0.4,0c2,0.2,4.1,0.3,6,0c3.3-0.4,5.8-2.6,8.9-3.6
					c1.1,25.6-6,70.4-8.8,88.9c-1.4,9.5-2.7,18.5-3.8,26.7c-7,53.6-7.1,103.9-4.5,140.8c0.4,0,0.8,0,1.2,0
					c-1.1-21.2-1.7-49,0.4-79.2c3.7-60,18-141.8,16.1-177.3c0.5-0.1,0.9-0.2,1.4-0.3c0.4,0,0.8-0.1,1.2-0.2c1.6-0.2,3.2-0.4,4.8-0.6
					c0.2,0,0.4,0,0.6,0c0-0.1,0-0.3,0-0.5c-1.2-11.4-4.7-36.5-15.6-58.3c-1.9-3.8-3.8-7.6-6.4-10.9c-5-6.4-21.9-26.5-29.4-29.1
					c8.9,4.9,22.1,21.8,28.1,30.1c6.4,9.1,19,40.9,22.3,65.9c0.1,0.8,0.2,1.6,0.3,2.3c-1.6,0.1-3.2,0.2-4.8,0.4
					c-0.4,0-0.8,0-1.2,0.2c-0.7,0.1-1.4,0.3-2,0.5c-3.2,1.1-5.7,3.6-9.1,3.9c-1.8,0.2-3.7,0.2-5.6,0c0-0.1,0-0.3,0-0.4l0,0l0,0
					c-0.5-7.5-1.3-14.5-3.2-22c-1-3.7-4.4-12.9-8.4-20.2c-0.7-1.2-1.3-2.3-2-3.4c0.5,1.1,1,2.2,1.4,3.4c4,10.3,5.4,23.1,7.2,43.2
					c-4.6,0-10.2-1.4-14.8-0.2c0.4-14.7,0.7-27.5-5.1-43.2c-0.1-0.4-0.3-0.9-0.5-1.3v1.1c0,17.6-0.7,30.6-2.2,44.9l-3.1,0.3
					c-0.5-10.2-1.4-23.7-2.8-31.3c-2.2-11.7-4.8-20.7-7.6-28c-0.5-1.3-1-2.6-1.4-3.8c0,0.8,0,1.5,0.1,2.3c0,0.5,0,1,0,1.5
					c2.3,31.6,3.4,48.9,3.8,58.6c-0.7,0-1.5,0-2.4,0c-3.2,0.3-6.3,1.2-9.5,1.5c-0.2,0-0.3,0-0.5,0c-1.1-5.6-1.3-10.4-1.5-15.9l0,0
					c0-0.3,0-0.6,0-0.9c-0.1,0.6-0.2,1.3-0.3,1.9c-0.6,3.6-0.8,7.3-0.8,11.1c0,0.6,0,2,0.1,3.7c-3.2-0.4-6.9-1.6-10.1-1.4
					c-0.7-4.6-0.9-8.5-1-9.5c-0.8-8.6-4.1-29.2-4.4-47.7c0-1.4,0-2.7,0-4c0,0.1,0,0.3-0.1,0.4c-0.4,1.2-0.8,2.5-1.2,3.9
					c-4,13.9-7.9,37.6-6.3,54.9c-2.6,0-3.6-1.2-12.3,1c-1.1-7.3-2.3-16-3-27.8c0-1.1-0.1-2.3-0.2-3.5c-0.2,1.1-0.4,2.3-0.7,3.5
					c-1.4,7.8-2.6,16.7-1.8,26.4c-3.2-0.1-5.5-0.6-7.5-1c-0.1,0-0.3,0-0.5,0c-1.5-0.3-2.8-0.5-4.2-0.4c0-15.1,0.8-38.6,2.1-45.2
					c0-0.4,0.2-0.8,0.2-1.2c0-0.3,0.1-0.6,0.2-0.9c-0.4,0.6-0.8,1.2-1.1,1.8l0,0c-4.7,8.4-6.6,18.3-7.7,27.8
					c-0.4,3.5-0.9,11.5-1.1,19.2c-1.1,0.3-2.2,0.6-3.3,0.6c-3.9,0.3-8.5-4.3-15.7-3.2c0.4-4.3,1.1-9.7,2.3-16.6
					c0.2-1.3,0.4-2.5,0.7-3.8c0.2-0.9,0.4-1.8,0.6-2.8c2.5-10.7,6.7-20.9,12-30.5c-8,13.1-12.3,25.1-14.6,35.5
					c-3.5,7.2-6.1,15.1-7,22.3c-1.6-1-3.4-1.8-5.4-2c-0.4,0-0.8-0.1-1.2-0.1c-1.1,0-2.3,0-3.5,0.3c1.7-8.2,4.6-17.6,7.8-26.6
					c0-0.2,0.2-0.4,0.2-0.7c3.8-10.7,7.9-20.7,10.9-27.1c6.7-14.4,15.4-22.9,29-37.7C113.4,48,102.8,57.5,96.2,70.5
					c-3.9,7.6-7.8,15.2-10.4,23.3c-2.2,6.8-6.6,21.1-8.5,33.7c0,0.1,0,0.3,0,0.4c0.4-0.1,0.8-0.2,1.2-0.3c0.8-0.2,1.5-0.2,2.3-0.3
					C78,162,82.5,192.1,93.9,240.5c0,0,2.2,11.2,3.3,19.8c3.6,31.5,2.8,47.8,2.5,104.6c0,5.1-0.2,10.7-0.5,16.3l-74.3-0.5
					c23.9-59.5,26.9-91.7,23.5-196.9c-1.1-34.3-2.3-66.7,13.8-108C89,7.8,138.1-6,170.7,3.1c0.3,0,0.6,0.2,0.9,0.2
					c0.4,0,0.9-0.1,1.3-0.2c15.2-1.8,27.8,0.6,43.8,11.7c38.9,27.2,57.9,79.3,60.7,126.6c2.7,47-6.8,106.2,1.6,165.9
					c2.9,20.8,8.3,41.1,14.6,61.1c0.4,1.4,2.3,5.9,4.8,11.7c0.3,0,0.6,0,0.9,0c-4.8-11.8-6.5-18.4-9.6-30.7L289.6,349.7z"/>
			</g>
		</g>
	</g>
</g>
</svg>
