<?xml version="1.0" encoding="utf-8"?>
<!-- Generator: Adobe Illustrator 28.1.0, SVG Export Plug-In . SVG Version: 6.00 Build 0)  -->
<svg version="1.1" id="Capa_1" xmlns="http://www.w3.org/2000/svg" xmlns:xlink="http://www.w3.org/1999/xlink" x="0px" y="0px"
	 viewBox="0 0 323.7 391.8" style="enable-background:new 0 0 323.7 391.8;" xml:space="preserve">
<style type="text/css">
	.st0{fill:#875D3B;}
	.st1{fill:#FFD0BC;}
	.st2{fill:#FFE2D6;}
	.st3{fill:#F0B399;}
	.st4{fill:none;stroke:#D17F5B;stroke-width:4.5;stroke-miterlimit:12;}
	.st5{fill:url(#SvgjsPath2980_00000158707014008714142100000007213271329579740822_);}
	.st6{fill:#93DC3B;}
	.st7{fill:#A8EB57;}
	.st8{fill:#7FCD22;}
	.st9{fill:#5FAE00;}
	.st10{fill:#F7C1AA;}
	.st11{fill:url(#SvgjsPath5101_00000118384348298904477110000008042263300163616176_);}
	.st12{fill:#FFFFFF;}
	.st13{fill:#F771A9;stroke:#E85391;stroke-width:2.2;stroke-miterlimit:12;}
	.st14{fill:#C92066;}
	.st15{fill:#FF8EBD;}
	.st16{fill:#FFA8CC;}
	.st17{fill:url(#SvgjsPath4585_00000163068937282121687870000013505812364388616068_);}
	.st18{fill:#4D3623;stroke:#1F1105;stroke-width:1.5;stroke-miterlimit:12;}
	.st19{fill:#5C4633;}
	.st20{opacity:0.9;enable-background:new    ;}
	.st21{opacity:0.6;fill:#FFFFFF;enable-background:new    ;}
	.st22{opacity:0.9;fill:#FFFFFF;enable-background:new    ;}
	.st23{fill:#D17F5B;}
	.st24{fill:url(#SvgjsPath4593_00000054249443927126525350000007479983650022051248_);}
	.st25{fill:url(#SvgjsPath2753_00000103226751081958968940000006641757763022075835_);}
	.st26{fill:url(#SvgjsPath2757_00000088127798135844162910000007870765203781343380_);}
	.st27{fill:#2A232B;}
	.st28{opacity:0.1;fill:#A68469;enable-background:new    ;}
	.st29{fill:#A68469;}
	.st30{fill:#976F50;}
	.st31{fill:#B59A85;}
	.st32{fill:#784B28;}
</style>
<g id="svga-group-wrapper">
	<g id="svga-group-subwrapper">
		<g id="svga-group-hair-back">
			<path id="SvgjsPath4969" class="st0" d="M246,78.2L82.3,68.8c0,0-41.3,304.1-41.3,313.6c0,0,166,1.2,236.8,0
				C276.5,369.2,246,78.2,246,78.2L246,78.2z"/>
		</g>
		<g id="svga-group-humanbody-single">
			<path id="SvgjsPath2761" class="st1" d="M310.8,342.2c-9.9-16.9-22.2-19.9-32.3-23.1c-10.4-3.3-31.8-5.3-43.5-7.7
				c-11.3-2.3-38.1-9.6-38.4-22.4c-0.3-13.4,7.1-66.7,7.1-66.7h-85.1c0,0,7.4,53.3,7.1,66.7c-0.3,12.8-27.1,20.1-38.4,22.4
				c-11.7,2.3-33.1,4.3-43.5,7.7c-10.1,3.2-22.4,6.3-32.3,23.1c-6,10.2-9.9,26.8-9.9,45.1h319.2c0-18.3-3.9-34.9-9.9-45.1H310.8z"/>
			<path id="SvgjsPath2762" class="st2" d="M196.5,289c4.1,18.2,29.9,22.7,43.3,25.5c36,7.3,55.6,8.5,69.6,32.4
				c4.8,8.2,9,26.4,9.8,40.1c3,0.5,0.9-29-8.5-44.9c-16-27.4-47.9-25.2-75.8-30.8C223.6,309,196.8,301.7,196.5,289L196.5,289
				L196.5,289z M126,289c-0.3,12.8-27.1,20.1-38.4,22.4c-28,5.7-59.8,3.4-75.8,30.8c-9.3,15.9-11.5,45.4-8.5,44.9
				c0.8-13.7,5-32,9.8-40.1c14-23.9,33.5-25.2,69.6-32.4C96.1,311.8,121.8,307.3,126,289L126,289L126,289z"/>
			<path id="SvgjsPath2763" class="st3" d="M81,325.1c0,0,47.1,0.5,55.1,3.1c3.8,1.2,13.8,9.4,13.8,9.4s-10.8-5.3-14.2-6.3
				C127.7,329.1,81.1,325.1,81,325.1L81,325.1z M160.8,342.4c3.4,0,13-6.4,13-6.4s-9.2,3.4-12.1,3.6c-2.5,0.1-10.5-2-10.5-2
				S158,342.5,160.8,342.4L160.8,342.4z M189.2,330.4c11.1-3,49-5.4,49-5.4s-39.1-0.8-50.2,2.8c-3.7,1.2-12.4,8.6-12.4,8.6
				S185.6,331.4,189.2,330.4L189.2,330.4z"/>
			<path id="SvgjsPath2764" class="st4" d="M310.8,342.2c-16-27.4-47.9-25.2-75.8-30.8c-11.3-2.3-38.1-9.6-38.4-22.4
				c-0.3-13.4,7.1-66.7,7.1-66.7h-85.1c0,0,7.4,53.3,7.1,66.7c-0.3,12.8-27.1,20.1-38.4,22.4c-11.7,2.3-33.1,4.3-43.5,7.7
				c-10.1,3.2-22.4,6.3-32.3,23.1c-6,10.2-9.9,26.8-9.9,45.1h319.2c0-18.3-3.9-34.9-9.9-45.1H310.8z"/>
		</g>
		<g id="svga-group-chinshadow-single">
			
				<linearGradient id="SvgjsPath2980_00000065075914740640423310000009754993217489173907_" gradientUnits="userSpaceOnUse" x1="-1096.65" y1="219.5114" x2="-1096.65" y2="238.8117" gradientTransform="matrix(3 0 0 -3 3450.8999 953.07)">
				<stop  offset="0" style="stop-color:#F0B399;stop-opacity:0.8"/>
				<stop  offset="0.7" style="stop-color:#D17F5B"/>
			</linearGradient>
			<path id="SvgjsPath2980" style="fill:url(#SvgjsPath2980_00000065075914740640423310000009754993217489173907_);" d="
				M161.2,295.4c9.2,0,22.2-6,34.4-14c0.7-11.1,2.8-28.7,4.5-41.8c-23-3-55.5-2.9-78.4,0.2c1.7,13,3.7,30.3,4.5,41.4
				C138.6,289.4,151.9,295.5,161.2,295.4L161.2,295.4z"/>
		</g>
		<g id="svga-group-clothes-single">
			<path class="st6" d="M322.4,387.1c0.6-64.7-40.4-70.3-73.3-75c-10.1-1.4-19.6-2.7-27.2-5.6c-1.2-0.4-2.2-0.9-3.2-1.4
				c-0.9-0.4-1.8-0.9-2.9-1.3c-7.8,15.6-32.3,23-53.2,23.5c-1.1,0-2.2,0-3.3,0c-19.7,0-41.8-2.7-55.8-22.6
				c-11.2,4.4-23.6,6.2-35.5,7.9c-34.8,5-67.7,9.6-67.7,77h7.5c2.7,0,7,0,29,0.1l36.4,0.2c41.1,0.2,75.4,0.4,104.8,0.4s0,0,0,0
				c32.6,0,54.8-0.1,71.9-0.3c4.5-0.1,9-0.3,13.6-0.4c7.6-0.1,15.3,0,22.9-0.3c5-0.2,9.9-0.4,14.7,0c6.4,0,13.3,0,21.3,0
				C322.4,388.8,322.4,387.3,322.4,387.1L322.4,387.1z"/>
			<path id="SvgjsPath5112" class="st7" d="M322.2,387.3c-3.3-9.1-1.6-25.7-11.2-40.4c-19.2-29.2-54.8-26.5-87.6-36
				c-6.9,14.2-20.1,22.5-35.3,27.3l0,0c14.8-5.4,27.5-13.4,34.6-27.5c-0.8-0.2-1.6-0.5-2.5-0.7l1.6-3c39.8,12.3,71.9,3.4,90.6,35.3
				C318.4,352.4,322.4,369,322.2,387.3L322.2,387.3z M90.8,313.1c2.1-0.5,4.2-1,6.2-1.6l-2.2-2.9c-38.4,10-67.3,3.6-84.8,33.6
				c-6,10.2-9.9,26.8-9.9,45.1c3.3-9.1,1.6-25.7,11.2-40.4c17.4-26.5,48.4-26.8,78.4-33.6c10.7,13.3,26.4,22.7,43.4,25.5
				c-21.4-5.7-34.7-16.1-42.4-25.8L90.8,313.1z"/>
			<path id="SvgjsPath5113" class="st8" d="M214,307.3c-8.2,12.8-30.5,21.5-55.8,21.5s-45.6-8.7-55.1-23.1l0,0c0-0.1,2,2.9,2,2.9
				c-2.3,1-7.9,2.9-7.9,2.9l-2.4-3.1v0.2c0.6,0.6,1.1,1.2,1.5,1.9c7.2,9.8,19.2,26.3,59.7,26.3s7.3-0.1,11.2-0.4
				c26.8-1.9,44.2-10.6,53.1-26.4c0,0-4.1-1.7-6.2-2.8L214,307.3z"/>
			<path class="st9" d="M322.5,387.1c0.7-84.2-67.5-68.5-100.7-80.6c-2.3-0.8-4-1.9-6.2-2.7c-8.3,16.8-34.6,23.1-53.1,23.5
				c-24.1,0.4-45.4-3-59.1-22.6C60.1,321.9,0,298.8,0,389.9c15.3,0-7.1-0.1,73.1,0.3c78.7,0.5,124.7,0.4,155.9,0.2
				c4-0.2,8-0.1,12-0.2c7.5,0,15-0.4,22.5-0.6c7.6-0.1,15.3,0,22.9-0.3c5.4-0.2,10.8-0.4,16.2,0.2c6.1,0,12.6,0,20.1,0
				c0-0.2,0-2.2,0-2.5L322.5,387.1z M103,305.8c22.7,34.6,99.1,27.5,112.6-0.9c1.8,0.8,3.9,1.5,6,2.3c-6.4,13.6-20.2,26.6-54.4,29.1
				c-52.7,3.5-64.8-18-72.1-27.7C95.2,308.6,100.8,306.7,103,305.8z M0.2,389.7c4.1-38,7.8-65.2,53.8-73.3
				c15.8-2.9,23.9-3.2,40.9-7.9c13,18,25.9,30.8,73.6,28.8c35.2-3.9,47-16,53.4-30.1c43.6,13.8,97.5-0.3,100.2,82.2
				c-83-1.1-163.3-3.2-321.8,0.4L0.2,389.7z"/>
		</g>
		<g id="svga-group-head">
			<g id="svga-group-faceshape-wrap">
				<g id="svga-group-faceshape-single">
					<path id="SvgjsPath2977" class="st1" d="M258.1,137.5L258.1,137.5c0,0-16.4,67.7-29.9,88.6c-10.6,16.5-47.6,48.6-66.8,48.6
						s-56.2-31.9-66.9-48.4c-13.6-20.9-30.2-88.4-30.2-88.5l0,0c-2.1-8.2-3.3-16.8-3.3-25.6c0-55.7,44.7-100.8,100-100.9
						c55.3,0,100.2,45,100.3,100.6C261.4,120.7,260.2,129.3,258.1,137.5z"/>
					<path id="SvgjsPath2978" class="st10" d="M203.8,20.9c31.4,17.1,52.8,50.4,52.7,88.9c0,8.8-1.2,17.4-3.3,25.6l0,0
						c0,0-16.7,67.6-30.2,88.5c-9.8,15.1-41.6,47.9-61.8,47.9s-52-32.8-61.8-47.9c-13.6-20.9-30.2-88.4-30.2-88.5l0,0
						c-2.1-8.2-3.3-16.8-3.3-25.6c0-38.4,21.3-71.8,52.7-88.9C84.5,37.1,61,71.8,61.1,112.2c0,8.8,1.2,17.4,3.3,25.6l0,0
						c0,0,16.7,67.6,30.2,88.5c7.3,11.2,27.4,32.8,44.8,41.6c-0.9-0.4-1.7-0.8-2.6-1.2c8.9,4.7,17.5,7.9,24.2,7.9c0,0,0.2,0,0.3,0
						s0.2,0,0.3,0c6.7,0,15.3-3.1,24.2-7.9c-0.9,0.4-1.8,0.8-2.6,1.2c17.4-8.8,37.5-30.4,44.8-41.6c13.6-20.9,30.2-88.4,30.2-88.5
						l0,0c2.1-8.2,3.3-16.8,3.3-25.6c0-40.4-23.5-75.2-57.5-91.3L203.8,20.9z"/>
					<path id="SvgjsPath2979" class="st4" d="M258.1,137.5L258.1,137.5c0,0-16.4,67.7-29.9,88.6c-10.6,16.5-47.6,48.6-66.8,48.6
						s-56.2-31.9-66.9-48.4c-13.6-20.9-30.2-88.4-30.2-88.5l0,0c-2.1-8.2-3.3-16.8-3.3-25.6c0-55.7,44.7-100.8,100-100.9
						c55.3,0,100.2,45,100.3,100.6C261.4,120.7,260.2,129.3,258.1,137.5z"/>
				</g>
			</g>
			<g id="svga-group-mouth-single">
				
					<linearGradient id="SvgjsPath5101_00000160192469118486421870000002129879255168424873_" gradientUnits="userSpaceOnUse" x1="-1096.5" y1="235.7908" x2="-1096.5" y2="238.0138" gradientTransform="matrix(3 0 0 -3 3450.8999 950.07)">
					<stop  offset="0" style="stop-color:#F7C1AA"/>
					<stop  offset="1" style="stop-color:#F0B399"/>
				</linearGradient>
				<path id="SvgjsPath5101" style="fill:url(#SvgjsPath5101_00000160192469118486421870000002129879255168424873_);" d="M161,242.8
					c-6.8,0-11.9-7.2-11.9-7.2c11.9,5.6,24.5,0,24.5,0S167,242.8,161,242.8z"/>
				<path id="SvgjsPath5105" class="st12" d="M181.1,227.6c0,1-12.8,5.8-20.2,6c-6.9,0.2-20.3-4.4-20.3-6c0-1.5,10.6-2.6,20.9-2.6
					c10.3,0,19.5,1.1,19.5,2.6H181.1z"/>
				<path id="SvgjsPath5106" class="st13" d="M153.8,220.9c1.6-0.2,4.5,1.5,7.9,1.5c2.5,0,5.6-1.8,7.6-1.5c4.2,0.6,6.3,3.1,17.3,4.1
					c0,0-5.3,1.8-6.7,1.9c-4.5,0.4-11.9-0.3-18.6-0.3c-7.5,0-14.7,0.7-19.2,0.5c-1.6,0-6.5-1.9-6.5-1.9
					C144.6,224.8,149,221.5,153.8,220.9z M135.5,225.7c0,0,7.4,5.9,10.3,7.9c3.3,2.3,8.3,6.1,15.6,6c5.9,0,10.9-3,13.9-5
					c3.3-2.1,11.2-9.1,11.2-9.1c-3.1,0.7-5.3,1.3-6.7,1.9c-4.5,1.8-12.3,4.5-18.4,4.5s-14.7-2.7-19.4-4.3
					C138.8,226.5,135.5,225.7,135.5,225.7L135.5,225.7z"/>
				<path id="SvgjsPath5107" class="st14" d="M186.8,225.3c-0.8,1.1-3.5,1.2-4.8,1.6c-1.8,0.6-3.6,1.4-5.4,2
					c-4.4,1.6-9.1,2.9-13.8,3.3c-8.8,0.6-17.4-3-25.7-5.7c-0.7-0.2-1.6-0.3-2.2-0.7c-0.5-0.4,0-1.3,0.6-1.2c1.7,0.3,3.4,1.2,5.2,1.6
					c2,0.5,4.3,0.3,6.3,0.2c2.6,0,5.2-0.2,7.9-0.3c4.8-0.2,9.6,0,14.4,0c4.3,0.2,8.8,0.7,13-0.5c1.1-0.3,2.3-0.7,3.4-1.1
					C186.1,224.4,187.4,224.4,186.8,225.3C186.5,225.6,186.8,225.2,186.8,225.3L186.8,225.3z M175,227.3c-5.6,0-11.2-0.5-16.8-0.4
					c-3.1,0-6.2,0.2-9.2,0.4c-0.9,0-2.7-0.2-3.5,0.3c-0.8,0.5,1.9,1.3,2.2,1.4c5.4,1.7,11.2,2.9,17,2.2c2.8-0.4,5.6-1,8.3-1.9
					c1.1-0.3,2.4-0.6,3.3-1.2c0.9-0.7-0.7-0.9-1.1-0.9c-1.7,0,1.8,0,0,0L175,227.3z"/>
				<path id="SvgjsPath5108" class="st15" d="M161,237.9c-6.9,0-12.3-4-17.5-8c12.7,4.3,23.4,4.2,35.9-0.6
					C174.1,233.7,168.1,237.8,161,237.9z M150.6,225.2c9.2-0.4,18.3,0.4,27.4,0c-3-0.7-6-2.3-9.1-2.8c-2.4-0.2-4.9,1.5-7.4,1.5
					c-2.7,0-5.1-1.5-7.7-1.5c-3.3,0.4-6.5,2-9.7,2.9c2.1,0,4.3-0.1,6.4-0.2c3.1-0.1-2.3,0.1,0,0L150.6,225.2z"/>
				<path id="SvgjsPath5109" class="st16" d="M153.2,234.4c2.6,0.5,5.4,0.9,8.2,0.9s5-0.4,7.6-0.9c-2.3,1-4.9,1.9-7.7,1.9
					C158.4,236.3,155.4,235.5,153.2,234.4L153.2,234.4z"/>
			</g>
			<g id="svga-group-eyes-left">
				<g id="svga-group-eyesback-left">
					
						<radialGradient id="SvgjsPath4585_00000126296161888765007060000000924105591822590136_" cx="-2068.1619" cy="247.5414" r="7.2" gradientTransform="matrix(-3.2874 0.2906 -0.2876 -3.3219 -6614.2446 1574.855)" gradientUnits="userSpaceOnUse">
						<stop  offset="0" style="stop-color:#FFFFFF"/>
						<stop  offset="0.5" style="stop-color:#FDFEFE"/>
						<stop  offset="0.7" style="stop-color:#F6F8F9"/>
						<stop  offset="0.9" style="stop-color:#EAEFF2"/>
						<stop  offset="1" style="stop-color:#D9E3E8"/>
						<stop  offset="1" style="stop-color:#D8E2E7"/>
					</radialGradient>
					<path id="SvgjsPath4585" style="fill:url(#SvgjsPath4585_00000126296161888765007060000000924105591822590136_);" d="
						M123.2,144.4c7.6,1,13.2,6.4,18.2,15l0,0c0,0,0,0.1,0,0.2c0.5,2-1.2,3.6-3.4,5c-7.8,1.5-15.3,3.6-23.3,2.7
						c-16-1.8-16.5-10.2-17.4-12.4c-0.5-2.1-0.6-4.3-0.7-6.5c3,0,6.6-1.7,9.5-2.6c3.5-1,11.2-2.1,16.9-1.3L123.2,144.4z"/>
				</g>
				<g id="svga-group-eyesiriswrapper-left">
					<g id="svga-group-eyesiriscontrol-left">
						<g id="svga-group-eyesiris-left">
							<path id="SvgjsPath5115" class="st18" d="M133.5,156.6c-2,7.5-9.7,11.9-17.2,9.9s-11.9-9.8-9.8-17.4c2-7.5,9.7-11.9,17.2-9.9
								C131.1,141.2,135.5,149,133.5,156.6z"/>
							<path id="SvgjsPath5116" class="st19" d="M131.4,156.8c-2,5.8-7.9,9.1-13.8,7.6c-5.4-1.5-8.7-6.7-8.3-12.2
								c2-0.2,4.2-0.2,6.4,0c0,0,0,0.1,0,0.2c-0.7,2.6,0.9,5.5,3.7,6.2c2.8,0.8,5.6-0.8,6.3-3.4c0-0.3,0.1-0.7,0.2-1
								C127.8,154.8,129.8,155.7,131.4,156.8L131.4,156.8z"/>
							<path id="SvgjsPath5117" class="st20" d="M122,148.7c-2.8-0.8-5.7,0.8-6.4,3.6c-0.7,2.8,1,5.8,3.8,6.6
								c2.8,0.8,5.7-0.8,6.4-3.6C126.5,152.5,124.8,149.5,122,148.7z M122.6,158.6c-1.2,0.4-2.4-0.1-2.7-1.1c-0.3-1,0.4-2,1.6-2.4
								s2.4,0.1,2.7,1.1C124.5,157.2,123.8,158.2,122.6,158.6z"/>
							<path id="SvgjsPath5118" class="st21" d="M112.7,160.3c-0.9,0.5-2.2,0-2.9-1c-0.7-1.1-0.6-2.4,0.2-2.9c0.9-0.5,2.2,0,2.9,1
								C113.6,158.5,113.5,159.8,112.7,160.3z"/>
							<path id="SvgjsPath5119" class="st22" d="M131,152.3c-2,1.2-4.9,0.1-6.6-2.4s-1.4-5.6,0.5-6.8c2-1.2,4.9-0.1,6.6,2.4
								S132.9,151,131,152.3z"/>
						</g>
					</g>
				</g>
				<g id="svga-group-eyesfront-left">
					<path id="SvgjsPath4610" class="st1" d="M88,156.2c0,22.9,13.6,41.5,30.4,41.5s30.4-18.6,30.4-41.5s-13.6-41.5-30.4-41.5
						S88,133.3,88,156.2L88,156.2z M97.5,154.8c-0.5-2.1-0.6-4.3-0.7-6.5c3,0,6.6-1.7,9.5-2.6c3.5-1,11.2-2.1,16.9-1.4
						c7.6,1,13.2,6.4,18.2,15l0,0c0,0,0,0.1,0,0.2c0.5,2-1.2,3.6-3.4,5c-7.8,1.5-15.3,3.6-23.3,2.7c-16-1.8-16.5-10.2-17.4-12.4
						L97.5,154.8z"/>
					<path id="SvgjsPath4620" class="st23" d="M122.5,136.2c5.4,0.8,10.8,3.6,15.8,7.2c1.1,0.7,2.3,1.6,4.2,2.7
						c-1.4-0.3-2.7-1.1-3.9-1.8c1.3,1.3,2.4,2.9,3.4,4.4c-4.3-6.1-12.3-10.4-19-11.8c-6.5-1.3-18.1,0.2-26.6,5.2
						C104.2,136.4,115.7,135.2,122.5,136.2z"/>
					<path id="SvgjsPath4621" d="M141.5,159.3h-0.1c-4.9-8.4-10.6-13.5-18.2-14.6c-5.7-0.8-13.5,0.4-16.9,1.3
						c-3.1,0.8-6.8,2.7-9.9,2.5c-2.9-0.2-6.2-2.5-7.9-4.1c1.9,1.4,6.9,1.7,8.4,1.3c-0.5-0.1-3-1.7-3.5-2.2c1.2,0.7,6,1.4,7.5,1
						c-0.4-0.2-2.6-1.7-3.1-2.3c0.2,0.2,5.6,1.2,8.3,0.3c16.4-5.5,29.7-0.7,36,16.6c0,0,0,0.1,0,0.2c0,0,0,0-0.1,0h-0.3H141.5z
						 M97.1,154.3c-1.1,4.1,1.8,13.1,17.1,14.1c10.9,0.7,25.8-4.5,24-4.2c-7.8,1.5-15.3,3.5-23.3,2.6
						C96.8,164.8,98.5,154.5,97.1,154.3L97.1,154.3z"/>
				</g>
			</g>
			<g id="svga-group-eyes-right">
				<g id="svga-group-eyesback-right">
					
						<radialGradient id="SvgjsPath4593_00000016072676208600042390000015718341783048826269_" cx="-1110.775" cy="331.4261" r="7.2" gradientTransform="matrix(3.2874 0.2906 0.2876 -3.3219 3763.3445 1574.855)" gradientUnits="userSpaceOnUse">
						<stop  offset="0" style="stop-color:#FFFFFF"/>
						<stop  offset="0.5" style="stop-color:#FDFEFE"/>
						<stop  offset="0.7" style="stop-color:#F6F8F9"/>
						<stop  offset="0.9" style="stop-color:#EAEFF2"/>
						<stop  offset="1" style="stop-color:#D9E3E8"/>
						<stop  offset="1" style="stop-color:#D8E2E7"/>
					</radialGradient>
					<path id="SvgjsPath4593" style="fill:url(#SvgjsPath4593_00000016072676208600042390000015718341783048826269_);" d="
						M199.1,144.4c-7.6,1-13.2,6.4-18.2,15l0,0c0,0,0,0.1,0,0.2c-0.5,2,1.2,3.6,3.4,5c7.8,1.5,15.3,3.6,23.3,2.7
						c16-1.8,16.5-10.2,17.4-12.4c0.5-2.1,0.6-4.3,0.7-6.5c-3,0-6.6-1.7-9.5-2.6c-3.5-1-11.2-2.1-16.9-1.3L199.1,144.4z"/>
				</g>
				<g id="svga-group-eyesiriswrapper-right">
					<g id="svga-group-eyesiriscontrol-right">
						<g id="svga-group-eyesiris-right">
							<path id="SvgjsPath5120" class="st18" d="M215.8,156.6c-2,7.5-9.7,11.9-17.2,9.9s-11.9-9.8-9.8-17.4c2-7.5,9.7-11.9,17.2-9.9
								C213.4,141.2,217.8,149,215.8,156.6z"/>
							<path id="SvgjsPath5121" class="st19" d="M213.6,156.8c-2,5.8-7.9,9.1-13.8,7.6c-5.4-1.5-8.7-6.7-8.3-12.2
								c2-0.2,4.2-0.2,6.4,0c0,0,0,0.1,0,0.2c-0.7,2.6,0.9,5.5,3.7,6.2c2.8,0.8,5.6-0.8,6.3-3.4c0-0.3,0.1-0.7,0.2-1
								C210,154.8,211.9,155.7,213.6,156.8L213.6,156.8z"/>
							<path id="SvgjsPath5122" class="st20" d="M204.2,148.7c-2.8-0.8-5.7,0.8-6.4,3.6c-0.7,2.8,1,5.8,3.8,6.6
								c2.8,0.8,5.7-0.8,6.4-3.6S207,149.5,204.2,148.7z M204.8,158.6c-1.2,0.4-2.4-0.1-2.7-1.1s0.4-2,1.6-2.4
								c1.2-0.4,2.4,0.1,2.7,1.1C206.8,157.2,206,158.2,204.8,158.6z"/>
							<path id="SvgjsPath5123" class="st21" d="M194.9,160.3c-0.9,0.5-2.2,0-2.9-1c-0.7-1.1-0.6-2.4,0.2-2.9c0.9-0.5,2.2,0,2.9,1
								C195.8,158.5,195.8,159.8,194.9,160.3z"/>
							<path id="SvgjsPath5124" class="st22" d="M213.3,152.3c-2,1.2-4.9,0.1-6.6-2.4c-1.7-2.5-1.4-5.6,0.5-6.8
								c2-1.2,4.9-0.1,6.6,2.4C215.5,148,215.2,151,213.3,152.3z"/>
						</g>
					</g>
				</g>
				<g id="svga-group-eyesfront-right">
					<path id="SvgjsPath4631" class="st1" d="M204,114.7c-16.8,0-30.4,18.6-30.4,41.5s13.6,41.5,30.4,41.5s30.4-18.6,30.4-41.5
						S220.8,114.7,204,114.7L204,114.7z M207.6,167.2c-8,0.9-15.5-1.2-23.3-2.7c-2.2-1.3-3.9-3-3.4-5c0,0,0-0.1,0-0.2l0,0
						c4.9-8.6,10.6-13.9,18.2-15c5.7-0.8,13.5,0.4,16.9,1.4c3,0.8,6.5,2.6,9.5,2.6c0,2.1-0.2,4.3-0.7,6.5
						c-0.8,2.2-1.4,10.6-17.4,12.4L207.6,167.2z"/>
					<path id="SvgjsPath4641" class="st23" d="M200,136.2c-5.4,0.8-10.8,3.6-15.8,7.2c-1.1,0.7-2.3,1.6-4.2,2.7
						c1.4-0.3,2.7-1.1,3.9-1.8c-1.3,1.3-2.4,2.9-3.4,4.4c4.3-6.1,12.3-10.4,19-11.8c6.5-1.3,18.1,0.2,26.6,5.2
						C218.3,136.4,206.8,135.2,200,136.2z"/>
					<path id="SvgjsPath4642" d="M180.6,159.3h-0.1c0,0,0-0.1,0-0.2c6.3-17.3,19.6-22,36-16.6c2.7,0.9,8.1-0.1,8.3-0.3
						c-0.5,0.6-2.7,2.1-3.1,2.3c1.5,0.4,6.3-0.3,7.5-1c-0.5,0.5-3.1,2.1-3.5,2.2c1.5,0.4,6.5,0,8.4-1.3c-1.7,1.6-5,3.9-7.9,4.1
						c-3.1,0.2-6.8-1.7-9.9-2.5c-3.5-0.9-11.2-2.1-16.9-1.3c-7.6,1-13.2,6.2-18.2,14.6c0,0,0,0-0.1,0h-0.3H180.6z M207.6,166.9
						c-8,0.9-15.5-1.1-23.3-2.6c-1.9-0.3,13.1,5,24,4.2c15.3-1,18.2-10,17.1-14.1c-1.4,0.3,0.4,10.6-17.7,12.6L207.6,166.9z"/>
				</g>
			</g>
			<g id="svga-group-facehighlight-single">
				
					<radialGradient id="SvgjsPath2753_00000129164763495861107520000017013438336454258048_" cx="-1096.6666" cy="252.1458" r="21.9833" gradientTransform="matrix(3 0 0 -3.0314 3450.8999 963.0059)" gradientUnits="userSpaceOnUse">
					<stop  offset="0" style="stop-color:#FFE2D6;stop-opacity:0.5"/>
					<stop  offset="0.9" style="stop-color:#FFD0BC;stop-opacity:0"/>
				</radialGradient>
				<path id="SvgjsPath2753" style="fill:url(#SvgjsPath2753_00000129164763495861107520000017013438336454258048_);" d="
					M226.9,198.5c0,37.1-29.6,67.1-66.3,67.2c-36.7,0-66.4-29.9-66.5-67c0-37.1,29.6-67.1,66.3-67.2
					C197,131.5,226.8,161.5,226.9,198.5z"/>
				
					<radialGradient id="SvgjsPath2757_00000093141538627186317980000013303695800548852925_" cx="-1096.5499" cy="283.1125" r="19.7176" gradientTransform="matrix(3 0 0 -3.0314 3450.8999 963.0059)" gradientUnits="userSpaceOnUse">
					<stop  offset="0" style="stop-color:#FFE2D6;stop-opacity:0.5"/>
					<stop  offset="0.9" style="stop-color:#FFD0BC;stop-opacity:0"/>
				</radialGradient>
				<path id="SvgjsPath2757" style="fill:url(#SvgjsPath2757_00000093141538627186317980000013303695800548852925_);" d="M218.8,103
					c0,32.1-25.8,58.2-57.6,58.2s-57.6-26.1-57.6-58.2s25.8-58.2,57.6-58.2S218.8,70.9,218.8,103L218.8,103z"/>
			</g>
			<g id="svga-group-eyebrows-left">
				<path id="SvgjsPath5079" class="st27" d="M119.8,124.8c-7.3-0.8-35,6.2-35,6.2s27.6-11.2,39.1-9.4c8.5,1.3,23.7,8.5,20.9,12.2
					C142.5,136.8,135.5,126.5,119.8,124.8z"/>
			</g>
			<g id="svga-group-eyebrows-right">
				<path id="SvgjsPath5080" class="st27" d="M177.2,133.3c-2.8-3.8,12.5-10.5,22.3-11.3c11.7-1,37.7,6.8,37.7,6.8
					s-26.2-4.3-33.5-3.5C187.5,127.1,179.5,136.3,177.2,133.3L177.2,133.3z"/>
			</g>
			<g id="svga-group-nose-single">
				<path id="SvgjsPath5091" class="st3" d="M161.1,209.4c-3.1,0-8.7-3.3-8.1-6.3c0.6-2.7,4.1,1,8.2,1c4,0,8.9-2.4,9.4,0.3
					C171.5,208.8,166.1,209.5,161.1,209.4L161.1,209.4z"/>
				<path id="SvgjsPath5092" class="st23" d="M168.1,207.7c0.3,0.3,0.7,0.3,1,0s0.3-0.9,0-1.2c-1.9-2.4-5.3,0.8-5,1.2
					C164.1,207.8,166.8,205.9,168.1,207.7z M154,201.5c0.4,2.6,1.2,6.2,7.9,8c-6.5-0.2-10.8-1.4-10.7-7.6c0-3.1,3.2-9.5,3.2-9.5
					S153.6,198.7,154,201.5L154,201.5z"/>
			</g>
			<g id="svga-group-hair-front">
				<path class="st28" d="M250.5,70.2L76.8,68.3L61.2,391.4c7.1,0.1,14.2,0.2,21.2,0.3c0.8-0.3,1.6-0.4,2.6-0.2
					c0.4,0.1,0.8,0.1,1.2,0.2h7.8c0.6-0.2,1.2-0.4,1.8-0.4c1.2,0,2.3,0.2,3.5,0.4h3.2c4.5-85.3,5.2-104.6-9.3-169.2
					c-6-26.7-11.7-51.8-10-85.3c1.6,0.4,7.2,0.1,10.5-2.3c5.6-1.6,11.4,5.5,20.4,2c1.6,0.1,34.4,1.6,39.2,0.4
					c1.7-2.6,0-6.7,2.3-25.4c0.7,4.6,1.2,7.9,4.5,28.4c0.7,0,18.5,3.1,42.4-0.7c0,0,31.9-0.8,36.1-3.1c0.2,21.5-3.3,45.9-7.3,73.9
					c-6.9,47.7-15.3,106.4-9.8,181c1.7-0.9,3.7-0.8,5.6-0.7c4.6-0.4,9.2-0.3,13.9-0.3c3.7,0,7.4-0.1,11.1-0.2L250.5,70.2z"/>
				<path class="st29" d="M288.3,358.4l0.2-0.1c-24.9-100.3,5.8-179.7-15.1-251.1c-10-34-30.3-78.1-70.3-95.4
					c-10.7-4.6-20.7-5.4-32-3.7c-6.4-1.9-13.3-2.9-20.5-2.9c-49.8,0-81.9,42.9-97.5,91c-9.8,30.1-12.1,56.4-9.5,107.9
					c5.7,111.7-4,143.6-20.6,187.1h15.2c14.8,0,29.6,0.1,44.5,0.5c0.7-0.2,1.5-0.3,2.4-0.1c0.4,0.1,0.8,0.1,1.2,0.2c0,0,0,0,0,0h7.8
					c0.6-0.2,1.2-0.4,1.8-0.4c1.1,0,2.2,0.2,3.3,0.4c4.5-85.6,5.2-104.2-9.2-168.5c-6.3-27.9-12.1-54.1-9.8-89.6c3-0.1,5.3,0.6,8,2
					c0.1,0,0.3,0.1,0.4,0.2c0-0.4,0.2-0.9,0.3-1.4h0.2c0-0.1-0.2-0.2-0.2-0.2c1-5.3,2.9-11.2,5.2-17.1h0.3
					c-0.8,4.9-1.3,9.7-1.4,14.3c5.4-1.4,11.8,3.1,16.7,3.1c1.4,0,2.6-0.6,3.9-1.1c1.8-26.5,3.8-37.2,7.6-45.5h0.3
					c-2.2,10.4-2.9,25-2.1,44.6c4.4-0.4,9.6,1.5,13.4,1.4c0-6.5,1.1-15.3,1.5-20.6h0.3c0.7,10.4,1.9,17.3,2.9,22
					c8.7-1.9,8.3-0.7,12.8-0.9c0.3,0,0.6,0,0.9-0.1H151c-1.1-13.4,3.8-41.8,5.1-48.5h0.3c0,13.2,1.2,18.9,6.2,50.8
					c2.8-0.3,7.7,1.4,11.1,1.8c0-6.7,0-6.2,0-9.7h0.3c0,3.3,0.2,6.7,1.2,9.9c5.2,0.1,8.9-2.3,13.7-1.8c0.6-27.3-1.7-41.7-3.1-54.6
					h0.3c6.7,25.3,9,52.5,9.2,55c0.6,0,2.9-0.2,4-0.4c0.7-5.3,3.5-35.6,2.2-43.7h0.3c4.3,14.2,3.8,25.3,4.2,42.4
					c4.2-1.3,11,0.6,15.8,0c-0.7-12.8-0.9-24.4-4-35.4h0.3c3.8,9.8,6.8,21.8,8.2,34.8c10.6,0.8,8.8-1.6,15.2-3.6
					c2.2,59-25.9,138-17.1,259.2h2.2c4.6-0.4,9.3-0.3,14-0.3c7.5,0,15-0.4,22.5-0.6c7.6-0.1,15.3,0,22.9-0.3c4-0.2,7.9-0.3,11.9-0.1
					C293.2,377.4,291.3,370.8,288.3,358.4z"/>
				<path class="st30" d="M138.1,93.2c-6.2,12.5-5.1,26.7-7.7,40.7c0.8,0,1.6,0.1,2.4,0.1c0-6.5,1.1-15.3,1.5-20.6h0.3
					c0.7,10.4,1.9,17.3,2.9,22c1.1-0.2,2-0.4,2.8-0.6c-2.9-13.3-5.2-26.9-2.2-41.7V93.2z"/>
				<path class="st30" d="M263.2,286.7c0,25.1,0.6,51.1,4.9,76c-32.9-56.5-13.2-126.4-4.9-186.2c-4.6,16.6-23.6,101.5-26,132
					c-14.2-57.6,67.8-202.9-38.2-278c25.1,20.3,41.1,50.9,48.5,99.6c-1.1,1.2-5.5-0.6-5.8,1.8c1.3,36.9-9.1,81.5-15,139.3
					c-3.5,34.7-5.4,74.1-2.1,119.4c0.7,0,1.5,0,2.2,0c4.6-0.4,9.3-0.3,14-0.3c7.5,0,15-0.4,22.5-0.6c7.6-0.1,15.3,0,22.9-0.3
					c0.4,0,0.9,0,1.3,0c-11.7-33.5-23.3-66.9-24.4-102.8H263.2z"/>
				<path class="st30" d="M162.8,61.6c-7.1,13.1-8.2,28.1-9.6,42.8c1.2-8.3,2.4-15.6,3-18.5h0.3c0,13.2,1.2,18.9,6.2,50.8
					c1-0.1,2.2,0,3.4,0.2c-5.8-24.6-9.5-49.2-3.5-75.4H162.8z"/>
				<path class="st30" d="M93,131.7c1.4-0.4,2.8-0.4,4.2-0.2c0.8-20.8,4.7-42.1,16.3-58.3C99.2,85,96.2,102.7,93.2,119.5
					c0.3-0.8,0.6-1.5,0.9-2.3h0.3c-0.8,4.9-1.3,9.7-1.4,14.3l0,0V131.7z"/>
				<path class="st30" d="M113.7,133.7c1.8-26.5,3.8-37.2,7.6-45.5h0.3c-2.2,10.4-2.9,25-2.1,44.6l0,0c1.2,0,2.5,0,3.8,0.1
					c-0.8-19.3-3.9-38.4,3.4-56.3c-13.9,15.6-13.3,38.4-14.5,57.6C112.7,134,113.2,133.8,113.7,133.7z"/>
				<path class="st30" d="M72.3,163.1c8.2,61.5,18.1,121.4,9.9,182.9C87.2,294.4,79,242.9,69,191.4c8.2,56.5,8.2,113.1-6.6,167.9
					c5.2-27.7,0-54.5-2.3-81.7c0.2,38.9-8.5,77.5-21.5,113.7c14.7,0,29.4,0.1,44.1,0.5c0.7-0.2,1.5-0.3,2.4-0.1
					c0.4,0.1,0.8,0.1,1.2,0.2c0,0,0,0,0.1,0h7.7c0.6-0.2,1.2-0.4,1.8-0.4c1.1,0,2.2,0.1,3.2,0.3c4.5-85.6,5.2-104.2-9.2-168.5
					c-6.3-27.9-12.1-54.1-9.8-89.6c0,0,3.6-48.6,49.8-95.4C88.5,65.7,65.8,116.4,72.3,163.1z"/>
				<path class="st30" d="M202,103.9c0.1-4.5,0-8.5-0.3-10.7h0.3c4.3,14.2,3.8,25.3,4.2,42.4c0.9-0.3,2-0.4,3.1-0.4
					c0.1-21.1-3.3-42.1-10.3-61.8c1.1,9.8,2.8,20.3,3,30.6V103.9z"/>
				<path class="st30" d="M172.9,138.4c0.3,0,0.7,0.1,1,0.2c0-6.7,0-6.2,0-9.7h0.3c0,3.3,0.2,6.7,1.2,9.9c0.5,0,1,0,1.5,0
					c-1-10.8-1-20.9-1-32.1c-3.2,11.1-1.8,20.8-3.1,31.8L172.9,138.4z"/>
				<path class="st30" d="M218.3,100.2c3.8,9.9,6.8,21.9,8.2,34.9l0,0c1.3,0,2.4,0.1,3.3,0.1c-1.8-21.9-10.8-42.5-21-61.8
					c6.3,20.8,11.1,41.6,11.5,62.4c0.6,0,1.1,0,1.7,0c-0.7-12.8-0.9-24.4-4-35.4h0.3V100.2z"/>
				<path class="st30" d="M188.6,136.8c0.2,0,0.4,0,0.6,0c0.6-27.3-1.7-41.7-3.1-54.6h0.3c6.7,25.3,9,52.5,9.2,55
					c0.5,0,1.8-0.1,2.9-0.3c-1.9-26.8-5.9-53.2-19.1-77c6.2,25.1,6.6,51.6,9.3,76.8L188.6,136.8z"/>
				<path id="SvgjsPath4974" class="st31" d="M103.1,79.9c16.3-29.7,25.8-37.7,49.3-51c0.3-0.2-1.2,0.7-3.5,2.2
					C126,45.4,115.2,59.6,103.1,79.9z M220,71.6c15.1,30.2,16.1,50.9,14.8,41.1c-1.3-8.3-2.3-18.1-10.4-36.9
					c-8.8-19.6-23.2-39.1-41.6-50.6C193.1,32.3,205.5,43.4,220,71.6L220,71.6z M147.2,82.6c-3.1,21.8-2.5,38.9-2.4,37.5
					c0-16.6,3.8-39.4,7.9-55.7c4.4-16,9.2-24.7,10.7-27.9C157,48.7,150.1,64.3,147.2,82.6L147.2,82.6z M180,108.5
					c0.1,2.5,0.2,4,0.2,3.7c-0.9-10,2.9-27.7-9-64.4C176.1,65.5,179.1,80.4,180,108.5L180,108.5z M211,116.2
					c0.5,3.5,0.9,5.7,0.8,5.3c-2-11.9-1.5-33.4-12.8-58.1c-7-15.3-14.6-22.6-17.6-26.1C192.5,51,203.1,65.1,211,116.2L211,116.2z
					 M127.2,111c0.9-13.9,1.8-16,2.8-20.2c5.9-23.4,9.7-31,16.7-42.9C125.1,81.3,127.2,111,127.2,111z M58.3,115.3c0,0.8,0,4.6,0,4
					c1-33.3,40-90.9,66.4-100.7c-25.5,8.3-63.3,56.1-66.3,96.7H58.3z M59.5,181.8c1.1,9.3,2.7,16.6,2.5,15.8
					c-6.3-29.8,1.8-97.4,20.6-121.5C69,92.6,54.8,136,59.4,181.8H59.5z M53,273.1c-1.1,6.7-1,5.8-0.3,2.3
					c6.3-30.5,0.3-84.3-2.2-110.3C50.5,163.4,55.3,246.6,53,273.1z M235.5,48.2c3.7,5.4,12.1,15.8,21.2,38.8
					c6.9,17.6-2.9-9.1-6.3-16.8c-12.8-30-30.3-44.3-59.5-55.4C216.3,25.8,223.8,33.7,235.5,48.2z M260.5,177.4
					c-1.9,18.9,2-12.7,2.4-16.8c3.7-33.2-2.3-55.7-14.4-76.9C258.9,103.8,265.4,123.4,260.5,177.4L260.5,177.4z M270.9,296.7
					c1.2,5.8,1.9,9.2,1.8,8.5c-7.8-40.6-0.8-145-0.8-148.7C271.4,166.7,260.1,247.4,270.9,296.7L270.9,296.7z"/>
				<path class="st32" d="M256.6,389.9c0.6,0,1.1,0,1.7,0c-1.5-6.1-2.7-11.2-3.2-13.7c-7.9-36.7-11-95.9-3.9-132.5
					c-7.4,32.6-9.1,89.3,2.2,134.6c0.8,3.1,1.9,7.2,3.2,11.7V389.9z"/>
				<path class="st32" d="M288.8,358l-0.1,0.3c-24.9-100.6,5.9-179.5-15.1-251.1c-11.6-39.5-33.2-79.4-70.4-95.5
					c-11.3-4.9-21.7-5.3-32-3.7c-12-3.6-27.1-4.2-42.5,0.1C88.8,19.4,65.2,58.6,53,96.2c-9.2,28.5-12.2,53.7-9.5,107.9
					C49.2,313.8,40,346.3,23,391.2h15.4c14.8,0,29.6,0.1,44.4,0.5c0.7-0.2,1.5-0.3,2.4-0.1c0.4,0.1,0.8,0.1,1.2,0.2
					c0.1,0,0.2,0,0.3,0h7.5c0.6-0.2,1.2-0.4,1.8-0.4c1.1,0,2.3,0.2,3.4,0.4h0.2c1-16.9,2.4-39.4,2.8-73
					C103,237.4,76,203.9,80.5,133.9h1.1c0.4,0,0.8,0,1.2,0.1c2,0.3,3.8,1,5.4,1.8c0,0,0,0,0,0.1c0.2,0.1,0.4,0.2,0.6,0.4v-0.2
					c0-0.4,0.2-0.9,0.3-1.4c0,0,0-0.1,0-0.2c1.1-5.5,2.9-11.4,5.2-17.1c-0.9,5.3-1.3,10.1-1.4,14.3c0,0,0,0.2,0,0.3
					c0.4-0.1,0.8-0.2,1.2-0.3c5.2-0.7,11.1,3.3,15.8,3.3c1.1,0,2.2-0.5,3.2-0.8c0.3-0.1,0.5-0.2,0.8-0.3c0.5-7.5,1.3-15.4,1.7-19.3
					c0.9-9,2.2-18.2,5.9-26.3c-1.8,8.5-3,21.7-2.1,44.5c0,0,0,0.1,0,0.2h1c1.3,0,2.7,0,4.1,0.3h0.5c2.5,0.4,5.1,1,7.5,1h0.6v-0.2
					c0-3.4,0.3-7.9,1-14.6c0.2-2,0.4-4,0.6-6.1c0.6,10.1,1.8,16.8,2.9,22.1c0,0,0,0,0,0.1c0.2,0,0.4,0,0.6-0.1c3.2-0.8,3.3-1,7.5-1
					c1.9,0,3.4,0.2,4.8,0.1c0.3,0,0.7,0,1-0.1v-0.2c-0.3-3.3-0.4-6.5-0.3-8.6c0.2-5.2,2.6-25,5.4-39.9c0,16.5,2.6,26.1,4.8,41.4
					c0.4,3.1,0.9,6.2,1.4,9.2c0,0,0,0.2,0,0.3h0.7c3,0,6.6,1.2,10.1,1.7h0.6v-9.9c0,4.1,0.3,6.5,1,9.3c0,0.2,0.1,0.5,0.2,0.7h1.5
					c2.9-0.2,5.8-1.2,8.7-1.7c1-0.2,2-0.2,2.9-0.2h1v-9.7c-0.2-23.8-1-25.2-3.1-45.1c7.1,26.7,9.2,55.2,9.2,55.2s3-0.2,4.3-0.4
					c0.7-5.2,3.5-35.7,2.2-43.9c4.3,14.2,3.8,25.3,4.1,42.5c0,0,0,0,0,0.1c0.3,0,0.6-0.2,0.9-0.2c4.4-0.9,9.8,0.6,14.8,0.2h0.4
					c0,0,0,0,0-0.2c-0.7-13.8-1.1-24.9-4-35.4c3.6,9.4,6.7,21.6,8.1,34.4c0,0,0,0,0,0.1v0.2c0,0,0,0,0,0.2h0.4c2,0.2,4.1,0.3,6,0
					c3.3-0.4,5.8-2.6,8.9-3.6c1.1,25.9-6,71.1-8.8,89.8c-1.4,9.6-2.7,18.7-3.8,27c-7,54.2-7.1,105-4.5,142.3h1.2
					c-1.1-21.4-1.7-49.5,0.4-80c3.7-60.6,18-143.3,16.1-179.2c0.5-0.1,0.9-0.2,1.4-0.3c0.4,0,0.8-0.1,1.2-0.2
					c1.6-0.2,3.2-0.4,4.8-0.6h0.6v-0.5c-1.2-11.5-4.7-36.9-15.6-58.9c-1.9-3.8-3.8-7.7-6.4-11c-5-6.5-21.9-26.8-29.4-29.4
					c8.9,5,22.1,22,28.1,30.4c6.4,9.2,19,41.3,22.3,66.6c0.1,0.8,0.2,1.6,0.3,2.3c-1.6,0.1-3.2,0.2-4.8,0.4c-0.4,0-0.8,0-1.2,0.2
					c-0.7,0.1-1.4,0.3-2,0.5c-3.2,1.1-5.7,3.6-9.1,3.9c-1.8,0.2-3.7,0.2-5.6,0v-0.4c-0.5-7.6-1.3-14.7-3.2-22.2
					c-1-3.7-4.4-13-8.4-20.4c-0.7-1.2-1.3-2.3-2-3.4c0.5,1.1,1,2.2,1.4,3.4c4,10.4,5.4,23.3,7.2,43.7c-4.6,0-10.2-1.4-14.8-0.2
					c0.4-14.9,0.7-27.8-5.1-43.7c-0.1-0.4-0.3-0.9-0.5-1.3v1.1c0,17.8-0.7,30.9-2.2,45.4l-3.1,0.3c-0.5-10.3-1.4-23.9-2.8-31.6
					c-2.2-11.8-4.8-20.9-7.6-28.3c-0.5-1.3-1-2.6-1.4-3.8c0,0.8,0,1.5,0.1,2.3v1.5c2.3,31.9,3.4,49.4,3.8,59.2h-2.4
					c-3.2,0.3-6.3,1.2-9.5,1.5h-0.5c-1.1-5.7-1.3-10.5-1.5-16.1v-0.9c-0.1,0.6-0.2,1.3-0.3,1.9c-0.6,3.6-0.8,7.4-0.8,11.2
					c0,0.6,0,2,0.1,3.7c-3.2-0.4-6.9-1.6-10.1-1.4c-0.7-4.6-0.9-8.6-1-9.6c-0.8-8.7-4.1-29.5-4.4-48.2v-4c0,0.1,0,0.3-0.1,0.4
					c-0.4,1.2-0.8,2.5-1.2,3.9c-4,14-7.9,38-6.3,55.5c-2.6,0-3.6-1.2-12.3,1c-1.1-7.4-2.3-16.2-3-28.1c0-1.1-0.1-2.3-0.2-3.5
					c-0.2,1.1-0.4,2.3-0.7,3.5c-1.4,7.9-2.6,16.9-1.8,26.7c-3.2-0.1-5.5-0.6-7.5-1h-0.5c-1.5-0.3-2.8-0.5-4.2-0.4
					c0-15.3,0.8-39,2.1-45.7c0-0.4,0.2-0.8,0.2-1.2c0-0.3,0.1-0.6,0.2-0.9c-0.4,0.6-0.8,1.2-1.1,1.8c-4.7,8.5-6.6,18.5-7.7,28.1
					c-0.4,3.5-0.9,11.6-1.1,19.4c-1.1,0.3-2.2,0.6-3.3,0.6c-3.9,0.3-8.5-4.3-15.7-3.2c0.4-4.3,1.1-9.8,2.3-16.8
					c0.2-1.3,0.4-2.5,0.7-3.8c0.2-0.9,0.4-1.8,0.6-2.8c2.5-10.8,6.7-21.1,12-30.8c-8,13.2-12.3,25.4-14.6,35.9
					c-3.5,7.3-6.1,15.3-7,22.5c-1.6-1-3.4-1.8-5.4-2c-0.4,0-0.8-0.1-1.2-0.1c-1.1,0-2.3,0-3.5,0.3c1.7-8.3,4.6-17.8,7.8-26.9
					c0-0.2,0.2-0.4,0.2-0.7c3.8-10.8,7.9-20.9,10.9-27.4c6.7-14.6,15.4-23.1,29-38.1C112.5,53.4,102,63,95.3,76.2
					c-3.9,7.7-7.8,15.4-10.4,23.5c-2.2,6.9-6.6,21.3-8.5,34.1v0.4c0.4-0.1,0.8-0.2,1.2-0.3c0.8-0.2,1.5-0.2,2.3-0.3
					C77.2,168.6,81.7,199,93,248c0,0,2.2,11.3,3.3,20c3.6,31.8,2.8,48.3,2.5,105.7c0,5.2-0.2,10.8-0.5,16.5L24,389.6
					C48,329.5,51,297,47.5,190.7c-1.1-34.7-2.3-67.4,13.8-109.1C88.2,12.8,137.2-1.1,169.8,8.1c0.3,0,0.6,0.2,0.9,0.2
					c0.4,0,0.9-0.1,1.3-0.2c15.2-1.8,27.8,0.6,43.8,11.8c38.9,27.5,57.9,80.1,60.7,127.9c2.7,47.5-6.8,107.3,1.6,167.6
					c2.9,21,8.3,41.5,14.6,61.7c0.4,1.4,2.3,6,4.8,11.8h0.9C293.7,377.1,292,370.4,288.8,358z"/>
			</g>
		</g>
	</g>
</g>
</svg>
